<svg xmlns="http://www.w3.org/2000/svg" width="32" height="32" fill="none"><filter id="d" width="2.608" height="4.361" x="14.796" y="2.06" color-interpolation-filters="sRGB" filterUnits="userSpaceOnUse"><feFlood flood-opacity="0" result="BackgroundImageFix"/><feBlend in="SourceGraphic" in2="BackgroundImageFix" result="shape"/><feColorMatrix in="SourceAlpha" result="hardAlpha" values="0 0 0 0 0 0 0 0 0 0 0 0 0 0 0 0 0 0 127 0"/><feOffset dx=".2"/><feGaussianBlur stdDeviation=".25"/><feComposite in2="hardAlpha" k2="-1" k3="1" operator="arithmetic"/><feColorMatrix values="0 0 0 0 0.87451 0 0 0 0 0.564706 0 0 0 0 0.341176 0 0 0 1 0"/><feBlend in2="shape" result="effect1_innerShadow_18_17986"/></filter><filter id="f" width="30.921" height="23.688" x="-.961" y="4.241" color-interpolation-filters="sRGB" filterUnits="userSpaceOnUse"><feFlood flood-opacity="0" result="BackgroundImageFix"/><feBlend in="SourceGraphic" in2="BackgroundImageFix" result="shape"/><feColorMatrix in="SourceAlpha" result="hardAlpha" values="0 0 0 0 0 0 0 0 0 0 0 0 0 0 0 0 0 0 127 0"/><feOffset dx="-4"/><feGaussianBlur stdDeviation="2"/><feComposite in2="hardAlpha" k2="-1" k3="1" operator="arithmetic"/><feColorMatrix values="0 0 0 0 1 0 0 0 0 0.905882 0 0 0 0 0.392157 0 0 0 1 0"/><feBlend in2="shape" result="effect1_innerShadow_18_17986"/><feColorMatrix in="SourceAlpha" result="hardAlpha" values="0 0 0 0 0 0 0 0 0 0 0 0 0 0 0 0 0 0 127 0"/><feOffset dx="-.5"/><feGaussianBlur stdDeviation=".5"/><feComposite in2="hardAlpha" k2="-1" k3="1" operator="arithmetic"/><feColorMatrix values="0 0 0 0 0.996078 0 0 0 0 0.866667 0 0 0 0 0.462745 0 0 0 1 0"/><feBlend in2="effect1_innerShadow_18_17986" result="effect2_innerShadow_18_17986"/><feColorMatrix in="SourceAlpha" result="hardAlpha" values="0 0 0 0 0 0 0 0 0 0 0 0 0 0 0 0 0 0 127 0"/><feOffset dx="1"/><feGaussianBlur stdDeviation="1"/><feComposite in2="hardAlpha" k2="-1" k3="1" operator="arithmetic"/><feColorMatrix values="0 0 0 0 0.917647 0 0 0 0 0.572549 0 0 0 0 0.32549 0 0 0 1 0"/><feBlend in2="effect2_innerShadow_18_17986" result="effect3_innerShadow_18_17986"/></filter><filter id="j" width="25" height="6.125" x="3.916" y="19.313" color-interpolation-filters="sRGB" filterUnits="userSpaceOnUse"><feFlood flood-opacity="0" result="BackgroundImageFix"/><feBlend in="SourceGraphic" in2="BackgroundImageFix" result="shape"/><feGaussianBlur result="effect1_foregroundBlur_18_17986" stdDeviation="1"/></filter><filter id="l" width="11.5" height="18.25" x="14.791" y="5.063" color-interpolation-filters="sRGB" filterUnits="userSpaceOnUse"><feFlood flood-opacity="0" result="BackgroundImageFix"/><feBlend in="SourceGraphic" in2="BackgroundImageFix" result="shape"/><feGaussianBlur result="effect1_foregroundBlur_18_17986" stdDeviation="1"/></filter><radialGradient id="a" cx="0" cy="0" r="1" gradientTransform="matrix(-1.75818 -2.375 3.27998 -2.42812 17.76 29.563)" gradientUnits="userSpaceOnUse"><stop offset="0" stop-color="#ffc26d"/><stop offset="1" stop-color="#f68d61"/></radialGradient><linearGradient id="b" x1="15.26" x2="15.51" y1="27.156" y2="28.938" gradientUnits="userSpaceOnUse"><stop offset=".186" stop-color="#e57356"/><stop offset="1" stop-color="#e57356" stop-opacity="0"/></linearGradient><radialGradient id="c" cx="0" cy="0" r="1" gradientTransform="rotate(135 2.909 16.856) scale(4.06586 6.70906)" gradientUnits="userSpaceOnUse"><stop offset=".441" stop-color="#ea8059" stop-opacity="0"/><stop offset="1" stop-color="#c27068"/></radialGradient><radialGradient id="e" cx="0" cy="0" r="1" gradientTransform="matrix(0 -2.18066 1.3125 0 16.791 4.24)" gradientUnits="userSpaceOnUse"><stop offset="0" stop-color="#ffe957"/><stop offset="1" stop-color="#f7a630"/></radialGradient><linearGradient id="g" x1="18.467" x2="4.946" y1="26.093" y2="26.093" gradientUnits="userSpaceOnUse"><stop offset="0" stop-color="#fcb949"/><stop offset="1" stop-color="#e28c37"/></linearGradient><linearGradient id="h" x1="18.104" x2="18.104" y1="28.188" y2="25.188" gradientUnits="userSpaceOnUse"><stop offset="0" stop-color="#d7737d"/><stop offset=".302" stop-color="#fca162" stop-opacity="0"/></linearGradient><radialGradient id="i" cx="0" cy="0" r="1" gradientTransform="matrix(-19.00185 12.74995 -12.23105 -18.22851 22.041 14.625)" gradientUnits="userSpaceOnUse"><stop offset=".67" stop-color="#e69136" stop-opacity="0"/><stop offset=".977" stop-color="#cf7d44"/></radialGradient><linearGradient id="k" x1="6.229" x2="26.291" y1="23.438" y2="23.438" gradientUnits="userSpaceOnUse"><stop offset=".277" stop-color="#f5a43c"/><stop offset="1" stop-color="#ffe154"/></linearGradient><linearGradient id="m" x1="25.174" x2="15.541" y1="18.572" y2="18.572" gradientUnits="userSpaceOnUse"><stop offset=".118" stop-color="#ffef6d"/><stop offset="1" stop-color="#ffef6d" stop-opacity="0"/></linearGradient><circle cx="16.002" cy="26.266" r="3.661" fill="url(#a)"/><circle cx="16.002" cy="26.266" r="3.661" fill="url(#b)"/><circle cx="16.002" cy="26.266" r="3.661" fill="url(#c)"/><g filter="url(#d)"><rect width="2.408" height="4.361" x="14.796" y="2.06" fill="url(#e)" rx="1.204"/></g><g filter="url(#f)"><path fill="url(#g)" d="M7.978 10.674a8 8 0 0 1 7.766-6.433h.513a8 8 0 0 1 7.765 6.433l1.86 9.316a4 4 0 0 0 .881 1.814l1.24 1.451a4 4 0 0 1 .958 2.598v1.326a.75.75 0 0 1-.75.75H3.789a.75.75 0 0 1-.75-.75v-1.326a4 4 0 0 1 .958-2.598l1.24-1.45a4 4 0 0 0 .88-1.815z"/></g><path fill="url(#h)" d="M7.978 10.674a8 8 0 0 1 7.766-6.433h.513a8 8 0 0 1 7.765 6.433l1.86 9.316a4 4 0 0 0 .881 1.814l1.24 1.451a4 4 0 0 1 .958 2.598v1.326a.75.75 0 0 1-.75.75H3.789a.75.75 0 0 1-.75-.75v-1.326a4 4 0 0 1 .958-2.598l1.24-1.45a4 4 0 0 0 .88-1.815z"/><path fill="url(#i)" d="M7.978 10.674a8 8 0 0 1 7.766-6.433h.513a8 8 0 0 1 7.765 6.433l1.86 9.316a4 4 0 0 0 .881 1.814l1.24 1.451a4 4 0 0 1 .958 2.598v1.326a.75.75 0 0 1-.75.75H3.789a.75.75 0 0 1-.75-.75v-1.326a4 4 0 0 1 .958-2.598l1.24-1.45a4 4 0 0 0 .88-1.815z"/><g filter="url(#j)"><path fill="url(#k)" d="m7.479 21.313-1.563 2.125h21l-1.687-2.125z"/></g><g filter="url(#l)"><path fill="url(#m)" d="M16.791 9.326a2.264 2.264 0 0 1 4.464-.533l3.036 12.52h-7.5z"/></g></svg>