<svg xmlns="http://www.w3.org/2000/svg" xmlns:xlink="http://www.w3.org/1999/xlink" width="32" height="32" fill="none"><filter id="j" width="17.547" height="21.126" x="7.258" y="1.992" color-interpolation-filters="sRGB" filterUnits="userSpaceOnUse"><feFlood flood-opacity="0" result="BackgroundImageFix"/><feBlend in="SourceGraphic" in2="BackgroundImageFix" result="shape"/><feColorMatrix in="SourceAlpha" result="hardAlpha" values="0 0 0 0 0 0 0 0 0 0 0 0 0 0 0 0 0 0 127 0"/><feOffset dx=".25" dy=".15"/><feGaussianBlur stdDeviation=".5"/><feComposite in2="hardAlpha" k2="-1" k3="1" operator="arithmetic"/><feColorMatrix values="0 0 0 0 0.992157 0 0 0 0 0.666667 0 0 0 0 0.309804 0 0 0 1 0"/><feBlend in2="shape" result="effect1_innerShadow_18_20513"/></filter><filter id="n" width="8.219" height="12.935" x="11.884" y="10.031" color-interpolation-filters="sRGB" filterUnits="userSpaceOnUse"><feFlood flood-opacity="0" result="BackgroundImageFix"/><feBlend in="SourceGraphic" in2="BackgroundImageFix" result="shape"/><feColorMatrix in="SourceAlpha" result="hardAlpha" values="0 0 0 0 0 0 0 0 0 0 0 0 0 0 0 0 0 0 127 0"/><feOffset dx=".25"/><feGaussianBlur stdDeviation=".25"/><feComposite in2="hardAlpha" k2="-1" k3="1" operator="arithmetic"/><feColorMatrix values="0 0 0 0 1 0 0 0 0 0.572549 0 0 0 0 0.254902 0 0 0 1 0"/><feBlend in2="shape" result="effect1_innerShadow_18_20513"/></filter><filter id="o" width="7.719" height="12.964" x="12.141" y="10.024" color-interpolation-filters="sRGB" filterUnits="userSpaceOnUse"><feFlood flood-opacity="0" result="BackgroundImageFix"/><feBlend in="SourceGraphic" in2="BackgroundImageFix" result="shape"/><feGaussianBlur result="effect1_foregroundBlur_18_20513" stdDeviation=".125"/></filter><filter id="q" width="7.242" height="2.459" x="12.256" y="23.895" color-interpolation-filters="sRGB" filterUnits="userSpaceOnUse"><feFlood flood-opacity="0" result="BackgroundImageFix"/><feBlend in="SourceGraphic" in2="BackgroundImageFix" result="shape"/><feGaussianBlur result="effect1_foregroundBlur_18_20513" stdDeviation=".125"/></filter><filter id="r" width="7.242" height="2.459" x="12.256" y="26.266" color-interpolation-filters="sRGB" filterUnits="userSpaceOnUse"><feFlood flood-opacity="0" result="BackgroundImageFix"/><feBlend in="SourceGraphic" in2="BackgroundImageFix" result="shape"/><feGaussianBlur result="effect1_foregroundBlur_18_20513" stdDeviation=".125"/></filter><radialGradient id="e" cx="0" cy="0" r="1" gradientTransform="matrix(-.10937 .9375 -2.17141 -.25333 16.337 29.11)" gradientUnits="userSpaceOnUse"><stop offset=".268" stop-color="#ac90c6"/><stop offset="1" stop-color="#8e6aaa"/></radialGradient><linearGradient id="f" x1="19.297" x2="12.516" y1="25.802" y2="25.802" gradientUnits="userSpaceOnUse"><stop offset="0" stop-color="#cdc2d1"/><stop offset="1" stop-color="#947c8d"/></linearGradient><linearGradient id="g" x1="12.181" x2="13.837" y1="26.313" y2="26.313" gradientUnits="userSpaceOnUse"><stop offset="0" stop-color="#8a7b88"/><stop offset="1" stop-color="#8a7b88" stop-opacity="0"/></linearGradient><radialGradient id="h" cx="0" cy="0" r="1" gradientTransform="matrix(.01963 .82464 -3.67138 .08741 17.305 22.64)" gradientUnits="userSpaceOnUse"><stop offset=".229" stop-color="#ede2eb"/><stop offset="1" stop-color="#c8bccb" stop-opacity="0"/></radialGradient><linearGradient id="i" x1="17.462" x2="17.462" y1="28.891" y2="27.625" gradientUnits="userSpaceOnUse"><stop offset="0" stop-color="#7e5f9e"/><stop offset="1" stop-color="#7e5f9e" stop-opacity="0"/></linearGradient><radialGradient id="k" cx="0" cy="0" r="1" gradientTransform="matrix(-7.37494 6.62506 -5.46296 -6.0813 19.556 8.125)" gradientUnits="userSpaceOnUse"><stop offset=".286" stop-color="#ffec87"/><stop offset="1" stop-color="#ffcd4b"/></radialGradient><radialGradient id="l" cx="0" cy="0" r="1" gradientTransform="matrix(-12.31245 -7.81251 7.51457 -11.8429 20.493 13.438)" gradientUnits="userSpaceOnUse"><stop offset=".622" stop-color="#ffb239" stop-opacity="0"/><stop offset="1" stop-color="#ffb239"/></radialGradient><linearGradient id="m" x1="16.298" x2="19.72" y1="8.027" y2="5.361" gradientUnits="userSpaceOnUse"><stop offset="0" stop-color="#fff" stop-opacity="0"/><stop offset=".594" stop-color="#fff"/></linearGradient><linearGradient id="p" x1="19.72" x2="15.714" y1="10.997" y2="20.54" gradientUnits="userSpaceOnUse"><stop offset="0" stop-color="#ffbf5c"/><stop offset="1" stop-color="#ffbf5c" stop-opacity="0"/></linearGradient><linearGradient id="a"><stop offset="0" stop-color="#b1969a"/><stop offset="1" stop-color="#dad2e2"/></linearGradient><linearGradient xlink:href="#a" id="s" x1="15.744" x2="15.823" y1="27.472" y2="28.687" gradientUnits="userSpaceOnUse"/><linearGradient id="b"><stop offset="0" stop-color="#8a68a9"/><stop offset="1" stop-color="#dec2e3" stop-opacity="0"/></linearGradient><linearGradient xlink:href="#b" id="t" x1="16.715" x2="16.713" y1="28.542" y2="27.751" gradientUnits="userSpaceOnUse"/><linearGradient id="c"><stop offset="0" stop-color="#958387"/><stop offset="1" stop-color="#958387" stop-opacity="0"/></linearGradient><linearGradient xlink:href="#c" id="u" x1="11.587" x2="14.374" y1="28.086" y2="27.938" gradientUnits="userSpaceOnUse"/><linearGradient id="d"><stop offset=".127" stop-color="#fcf0fc"/><stop offset="1" stop-color="#e5c9e3" stop-opacity="0"/></linearGradient><radialGradient xlink:href="#d" id="v" cx="0" cy="0" r="1" gradientTransform="matrix(-.0047 .8375 -4.95703 -.0278 18.58 27.84)" gradientUnits="userSpaceOnUse"/><linearGradient xlink:href="#a" id="w" x1="15.744" x2="15.823" y1="25.096" y2="26.31" gradientUnits="userSpaceOnUse"/><linearGradient xlink:href="#b" id="x" x1="16.715" x2="16.713" y1="26.165" y2="25.374" gradientUnits="userSpaceOnUse"/><linearGradient xlink:href="#c" id="y" x1="11.587" x2="14.374" y1="25.71" y2="25.561" gradientUnits="userSpaceOnUse"/><radialGradient xlink:href="#d" id="z" cx="0" cy="0" r="1" gradientTransform="matrix(-.0047 .8375 -4.95703 -.0278 18.58 25.463)" gradientUnits="userSpaceOnUse"/><circle cx="15.868" cy="28.102" r="1.773" fill="url(#e)"/><rect width="6.781" height="6.719" x="12.516" y="22.172" fill="url(#f)" rx="1.25"/><rect width="6.781" height="6.719" x="12.516" y="22.172" fill="url(#g)" rx="1.25"/><rect width="6.781" height="6.719" x="12.516" y="22.172" fill="url(#h)" rx="1.25"/><rect width="6.781" height="6.719" x="12.516" y="22.172" fill="url(#i)" rx="1.25"/><g filter="url(#j)"><path fill="url(#k)" d="M15.767 22.969h.054c.556-.003 1.834-.024 2.347-.117.55-.1.621-.375.719-.805.602-2.654 1.612-3.674 2.288-4.356.104-.105.2-.202.286-.296.293-.322.547-.606.74-.824a8.648 8.648 0 1 0-12.644-.057c.2.225.472.53.792.88a6.933 6.933 0 0 0 .286.297c.675.682 1.686 1.703 2.288 4.356.098.43.169.705.719.805.511.093 1.546.114 2.07.117h.055z"/><path fill="url(#l)" d="M15.767 22.969h.054c.556-.003 1.834-.024 2.347-.117.55-.1.621-.375.719-.805.602-2.654 1.612-3.674 2.288-4.356.104-.105.2-.202.286-.296.293-.322.547-.606.74-.824a8.648 8.648 0 1 0-12.644-.057c.2.225.472.53.792.88a6.933 6.933 0 0 0 .286.297c.675.682 1.686 1.703 2.288 4.356.098.43.169.705.719.805.511.093 1.546.114 2.07.117h.055z"/></g><circle cx="17.462" cy="6.953" r="3.328" fill="url(#m)"/><g filter="url(#n)"><path fill="#ffad55" d="M15.479 22.966c-.035-2.172-.208-3.602-.472-4.598-.304-1.147-.728-1.72-1.178-2.173l-.005-.006-.006-.005a2.984 2.984 0 1 1 4.101 0l-.006.005-.006.006c-.441.446-.872.98-1.179 2.118-.266.985-.44 2.42-.475 4.651.302-.005.663-.014 1.001-.03.036-2.168.206-3.496.44-4.36.252-.937.577-1.325.918-1.67a3.984 3.984 0 1 0-5.488 0c.333.337.662.758.916 1.72.233.879.402 2.204.438 4.31.346.02.712.028 1 .032z"/></g><g filter="url(#o)"><path stroke="url(#p)" stroke-width=".25" d="M16.879 22.739c0-4.771.731-5.532 1.515-6.324a3.484 3.484 0 1 0-4.788 0c.784.792 1.511 2.161 1.511 6.324"/></g><g filter="url(#q)"><rect width="6.811" height="1.07" x="12.43" y="25.123" fill="#7e6693" rx=".535" transform="rotate(-8.905 12.43 25.123)"/></g><g filter="url(#r)"><rect width="6.811" height="1.07" x="12.43" y="27.494" fill="#7e6693" rx=".535" transform="rotate(-8.905 12.43 27.494)"/></g><rect width="8.32" height="1.102" x="11.685" y="27.463" fill="url(#s)" rx=".551" transform="rotate(-8.905 11.685 27.463)"/><rect width="8.32" height="1.102" x="11.685" y="27.463" fill="url(#t)" rx=".551" transform="rotate(-8.905 11.685 27.463)"/><rect width="8.32" height="1.102" x="11.685" y="27.463" fill="url(#u)" rx=".551" transform="rotate(-8.905 11.685 27.463)"/><rect width="8.32" height="1.102" x="11.685" y="27.463" fill="url(#v)" rx=".551" transform="rotate(-8.905 11.685 27.463)"/><rect width="8.32" height="1.102" x="11.685" y="25.086" fill="url(#w)" rx=".551" transform="rotate(-8.905 11.685 25.086)"/><rect width="8.32" height="1.102" x="11.685" y="25.086" fill="url(#x)" rx=".551" transform="rotate(-8.905 11.685 25.086)"/><rect width="8.32" height="1.102" x="11.685" y="25.086" fill="url(#y)" rx=".551" transform="rotate(-8.905 11.685 25.086)"/><rect width="8.32" height="1.102" x="11.685" y="25.086" fill="url(#z)" rx=".551" transform="rotate(-8.905 11.685 25.086)"/></svg>