<svg xmlns="http://www.w3.org/2000/svg" xmlns:xlink="http://www.w3.org/1999/xlink" width="32" height="32" fill="none"><filter id="f" width="5.8" height="5.8" x="19.6" y="8.6" color-interpolation-filters="sRGB" filterUnits="userSpaceOnUse"><feFlood flood-opacity="0" result="BackgroundImageFix"/><feBlend in="SourceGraphic" in2="BackgroundImageFix" result="shape"/><feGaussianBlur result="effect1_foregroundBlur_18_13888" stdDeviation=".15"/></filter><filter id="j" width="5.707" height="6.614" x="23.55" y="20.55" color-interpolation-filters="sRGB" filterUnits="userSpaceOnUse"><feFlood flood-opacity="0" result="BackgroundImageFix"/><feBlend in="SourceGraphic" in2="BackgroundImageFix" result="shape"/><feGaussianBlur result="effect1_foregroundBlur_18_13888" stdDeviation=".15"/></filter><filter id="o" width="22.25" height="28" x="2" y="2" color-interpolation-filters="sRGB" filterUnits="userSpaceOnUse"><feFlood flood-opacity="0" result="BackgroundImageFix"/><feBlend in="SourceGraphic" in2="BackgroundImageFix" result="shape"/><feColorMatrix in="SourceAlpha" result="hardAlpha" values="0 0 0 0 0 0 0 0 0 0 0 0 0 0 0 0 0 0 127 0"/><feOffset dx=".25"/><feGaussianBlur stdDeviation=".5"/><feComposite in2="hardAlpha" k2="-1" k3="1" operator="arithmetic"/><feColorMatrix values="0 0 0 0 0.466667 0 0 0 0 0.443137 0 0 0 0 0.498039 0 0 0 1 0"/><feBlend in2="shape" result="effect1_innerShadow_18_13888"/></filter><filter id="r" width="3.583" height="3.256" x="14.208" y="3.83" color-interpolation-filters="sRGB" filterUnits="userSpaceOnUse"><feFlood flood-opacity="0" result="BackgroundImageFix"/><feBlend in="SourceGraphic" in2="BackgroundImageFix" result="shape"/><feGaussianBlur result="effect1_foregroundBlur_18_13888" stdDeviation=".05"/></filter><filter id="u" width="7.6" height="7.6" x="5.7" y="8.7" color-interpolation-filters="sRGB" filterUnits="userSpaceOnUse"><feFlood flood-opacity="0" result="BackgroundImageFix"/><feBlend in="SourceGraphic" in2="BackgroundImageFix" result="shape"/><feGaussianBlur result="effect1_foregroundBlur_18_13888" stdDeviation=".1"/></filter><filter id="z" width="4.071" height="5.5" x="19.73" y="8.75" color-interpolation-filters="sRGB" filterUnits="userSpaceOnUse"><feFlood flood-opacity="0" result="BackgroundImageFix"/><feBlend in="SourceGraphic" in2="BackgroundImageFix" result="shape"/><feGaussianBlur result="effect1_foregroundBlur_18_13888" stdDeviation=".1"/></filter><filter id="C" width="5.75" height="5.75" x="13.625" y="18.625" color-interpolation-filters="sRGB" filterUnits="userSpaceOnUse"><feFlood flood-opacity="0" result="BackgroundImageFix"/><feBlend in="SourceGraphic" in2="BackgroundImageFix" result="shape"/><feGaussianBlur result="effect1_foregroundBlur_18_13888" stdDeviation=".125"/></filter><filter id="I" width="6.753" height="6.201" x="4.547" y="22.7" color-interpolation-filters="sRGB" filterUnits="userSpaceOnUse"><feFlood flood-opacity="0" result="BackgroundImageFix"/><feBlend in="SourceGraphic" in2="BackgroundImageFix" result="shape"/><feGaussianBlur result="effect1_foregroundBlur_18_13888" stdDeviation=".1"/></filter><radialGradient id="b" cx="0" cy="0" r="1" gradientTransform="rotate(112.552 8.742 13.515) scale(20.3702)" gradientUnits="userSpaceOnUse"><stop offset=".223" stop-color="#fff9ad"/><stop offset=".646" stop-color="#ffc850"/><stop offset="1" stop-color="#e3945b"/></radialGradient><radialGradient id="c" cx="0" cy="0" r="1" gradientTransform="rotate(78.413 1.758 15.466) scale(20.3539)" gradientUnits="userSpaceOnUse"><stop offset="0" stop-color="#d7938c" stop-opacity="0"/><stop offset=".879" stop-color="#d7938c" stop-opacity="0"/><stop offset="1" stop-color="#d7938c"/></radialGradient><linearGradient id="a"><stop offset="0" stop-color="#f5c224"/><stop offset="1" stop-color="#ffef71"/></linearGradient><linearGradient xlink:href="#a" id="d" x1="16.5" x2="14.5" y1="4.5" y2="6.5" gradientUnits="userSpaceOnUse"/><linearGradient xlink:href="#a" id="e" x1="11.833" x2="7.167" y1="10.167" y2="14.833" gradientUnits="userSpaceOnUse"/><radialGradient id="g" cx="0" cy="0" r="1" gradientTransform="rotate(-22.476 40.905 -50.727) scale(2.28001)" gradientUnits="userSpaceOnUse"><stop offset="0" stop-color="#fff2a8"/><stop offset="1" stop-color="#ffda77"/></radialGradient><linearGradient xlink:href="#a" id="h" x1="18.167" x2="14.833" y1="19.833" y2="23.167" gradientUnits="userSpaceOnUse"/><linearGradient id="i" x1="11" x2="4" y1="24.5" y2="26" gradientUnits="userSpaceOnUse"><stop offset="0" stop-color="#f5c224"/><stop offset="1" stop-color="#fce35d"/></linearGradient><linearGradient id="k" x1="27.982" x2="24.639" y1="20.656" y2="26.313" gradientUnits="userSpaceOnUse"><stop offset="0" stop-color="#f5bd64"/><stop offset="1" stop-color="#ffdc75"/></linearGradient><linearGradient id="l" x1="26.059" x2="25.915" y1="21.826" y2="25.986" gradientUnits="userSpaceOnUse"><stop offset="0" stop-color="#ffd36a"/><stop offset="1" stop-color="#efb872"/></linearGradient><radialGradient id="m" cx="0" cy="0" r="1" gradientTransform="matrix(-.87214 -5.64197 4.67917 -.72331 27.35 26.823)" gradientUnits="userSpaceOnUse"><stop offset=".85" stop-color="#dfa14c" stop-opacity="0"/><stop offset="1" stop-color="#c28255"/></radialGradient><radialGradient id="n" cx="0" cy="0" r="1" gradientTransform="matrix(-2.5625 3.96876 -3.37768 -2.18086 27.139 23.125)" gradientUnits="userSpaceOnUse"><stop offset=".718" stop-color="#ffe38a" stop-opacity="0"/><stop offset=".952" stop-color="#ffe38a"/></radialGradient><radialGradient id="p" cx="0" cy="0" r="1" gradientTransform="matrix(-13.63066 13.18967 -11.3663 -11.74632 21.701 12.5)" gradientUnits="userSpaceOnUse"><stop offset=".181" stop-color="#936dbd"/><stop offset="1" stop-color="#663993"/></radialGradient><radialGradient id="q" cx="0" cy="0" r="1" gradientTransform="matrix(14.22874 -8.1471 8.67708 15.15435 3.71 22.247)" gradientUnits="userSpaceOnUse"><stop offset="0" stop-color="#473e52"/><stop offset="1" stop-color="#473e52" stop-opacity="0"/></radialGradient><radialGradient id="s" cx="0" cy="0" r="1" gradientTransform="matrix(-2.49282 0 0 -2.78166 17.119 5.459)" gradientUnits="userSpaceOnUse"><stop offset=".286" stop-color="#79529b"/><stop offset="1" stop-color="#a276c9"/></radialGradient><radialGradient id="t" cx="0" cy="0" r="1" gradientTransform="matrix(2.13059 0 0 1.92488 15.56 5.459)" gradientUnits="userSpaceOnUse"><stop offset=".711" stop-color="#664581" stop-opacity="0"/><stop offset="1" stop-color="#664581"/></radialGradient><linearGradient id="v" x1="13" x2="6.572" y1="9.945" y2="15.065" gradientUnits="userSpaceOnUse"><stop offset="0" stop-color="#603d83"/><stop offset="1" stop-color="#603d83" stop-opacity="0"/></linearGradient><radialGradient id="w" cx="0" cy="0" r="1" gradientTransform="matrix(5.38392 .98706 -1.14913 6.26797 8.068 12.22)" gradientUnits="userSpaceOnUse"><stop offset="0" stop-color="#6d4a8d"/><stop offset="1" stop-color="#60427c"/></radialGradient><radialGradient id="x" cx="0" cy="0" r="1" gradientTransform="matrix(-3.79743 -.92775 1.02753 -4.20584 9.797 12.5)" gradientUnits="userSpaceOnUse"><stop offset=".886" stop-color="#8260a1" stop-opacity="0"/><stop offset="1" stop-color="#8260a1"/></radialGradient><radialGradient id="y" cx="0" cy="0" r="1" gradientTransform="rotate(109.781 2.726 8.361) scale(7.83707)" gradientUnits="userSpaceOnUse"><stop offset=".82" stop-color="#614879" stop-opacity="0"/><stop offset="1" stop-color="#614879"/></radialGradient><linearGradient id="A" x1="20.67" x2="22.232" y1="10.547" y2="14.109" gradientUnits="userSpaceOnUse"><stop offset="0" stop-color="#a47bd1"/><stop offset=".491" stop-color="#a47bd1" stop-opacity="0"/><stop offset="1" stop-color="#a47bd1"/></linearGradient><radialGradient id="B" cx="0" cy="0" r="1" gradientTransform="matrix(3.05095 -1.6875 1.46833 2.6547 20.639 12.438)" gradientUnits="userSpaceOnUse"><stop offset=".29" stop-color="#b185d6"/><stop offset=".778" stop-color="#9b6bbf"/></radialGradient><linearGradient id="D" x1="19" x2="14.409" y1="19.675" y2="23.332" gradientUnits="userSpaceOnUse"><stop offset="0" stop-color="#683b92"/><stop offset="1" stop-color="#683b92" stop-opacity="0"/></linearGradient><radialGradient id="E" cx="0" cy="0" r="1" gradientTransform="matrix(2.29671 -3.78 4.40069 2.67384 15.472 23.51)" gradientUnits="userSpaceOnUse"><stop offset="0" stop-color="#724d94"/><stop offset="1" stop-color="#6f4197"/></radialGradient><radialGradient id="F" cx="0" cy="0" r="1" gradientTransform="matrix(-1.4833 2.72734 -2.81196 -1.52931 16.812 21.022)" gradientUnits="userSpaceOnUse"><stop offset=".789" stop-color="#8b72a3" stop-opacity="0"/><stop offset="1" stop-color="#8b72a3"/></radialGradient><radialGradient id="G" cx="0" cy="0" r="1" gradientTransform="matrix(3.52289 -4.27779 2.99635 2.46758 14.67 23.642)" gradientUnits="userSpaceOnUse"><stop offset=".8" stop-color="#64398c" stop-opacity="0"/><stop offset="1" stop-color="#64398c"/></radialGradient><radialGradient id="H" cx="0" cy="0" r="1" gradientTransform="matrix(2.94772 2.4804 -2.63086 3.12652 15.676 20.873)" gradientUnits="userSpaceOnUse"><stop offset=".825" stop-color="#664289" stop-opacity="0"/><stop offset="1" stop-color="#664289"/></radialGradient><linearGradient id="J" x1="5.629" x2="11.212" y1="23.63" y2="27.631" gradientUnits="userSpaceOnUse"><stop offset="0" stop-color="#372447"/><stop offset=".213" stop-color="#372447" stop-opacity="0"/><stop offset=".806" stop-color="#654e72" stop-opacity="0"/><stop offset="1" stop-color="#654e72"/></linearGradient><linearGradient id="K" x1="5.361" x2="11" y1="24.531" y2="28.375" gradientUnits="userSpaceOnUse"><stop offset="0" stop-color="#50425c"/><stop offset="1" stop-color="#64497d"/></linearGradient><circle cx="16" cy="16" r="14" fill="url(#b)"/><circle cx="16" cy="16" r="14" fill="url(#c)"/><circle cx="15.5" cy="5.5" r="1.5" fill="url(#d)"/><circle cx="9.5" cy="12.5" r="3.5" fill="url(#e)"/><g filter="url(#f)"><circle cx="22.5" cy="11.5" r="2.5" fill="url(#g)"/><circle cx="22.5" cy="11.5" r="2.55" stroke="#fff8ac" stroke-width=".1"/></g><circle cx="16.5" cy="21.5" r="2.5" fill="url(#h)"/><path fill="url(#i)" fill-rule="evenodd" d="M10.189 28.74a14.054 14.054 0 0 1-5.439-4.405 3.5 3.5 0 1 1 5.439 4.406z" clip-rule="evenodd"/><g filter="url(#j)"><path stroke="url(#k)" stroke-width=".3" d="M28.764 21.234c-.887 2.16-2.255 3.963-4.032 5.422-.548-.618-.732-1.265-.732-2.156a3.5 3.5 0 0 1 3.5-3.5c.52 0 .82.032 1.264.234z"/></g><g fill-rule="evenodd" clip-rule="evenodd"><path fill="url(#l)" d="M28.955 21.316a14.04 14.04 0 0 1-4.073 5.507 3.5 3.5 0 0 1 4.074-5.507z"/><path fill="url(#m)" d="M28.955 21.316a14.04 14.04 0 0 1-4.073 5.507 3.5 3.5 0 0 1 4.074-5.507z"/><path fill="url(#n)" d="M28.955 21.316a14.04 14.04 0 0 1-4.073 5.507 3.5 3.5 0 0 1 4.074-5.507z"/><g filter="url(#o)"><path fill="url(#p)" d="M17.4 2.07C16.94 2.022 16.471 2 16 2 8.268 2 2 8.268 2 16s6.268 14 14 14c.472 0 .94-.023 1.4-.07C21.428 26.63 24 21.616 24 16c0-.752-.046-1.494-.136-2.223a3.001 3.001 0 0 1-1.218-4.637A18.05 18.05 0 0 0 17.4 2.07z"/><path fill="url(#q)" d="M17.4 2.07C16.94 2.022 16.471 2 16 2 8.268 2 2 8.268 2 16s6.268 14 14 14c.472 0 .94-.023 1.4-.07C21.428 26.63 24 21.616 24 16c0-.752-.046-1.494-.136-2.223a3.001 3.001 0 0 1-1.218-4.637A18.05 18.05 0 0 0 17.4 2.07z"/></g></g><g filter="url(#r)"><ellipse cx="16" cy="5.459" fill="url(#s)" rx="1.692" ry="1.528"/><ellipse cx="16" cy="5.459" fill="url(#t)" rx="1.692" ry="1.528"/></g><g filter="url(#u)"><circle cx="9.5" cy="12.5" r="3.5" stroke="url(#v)" stroke-width=".2"/></g><circle cx="9.5" cy="12.5" r="3.5" fill="url(#w)"/><circle cx="9.5" cy="12.5" r="3.5" fill="url(#x)"/><circle cx="9.5" cy="12.5" r="3.5" fill="url(#y)"/><g filter="url(#z)"><path stroke="url(#A)" stroke-width=".1" d="M22.39 9.002A2.546 2.546 0 0 0 22.301 9c-1.28.14-2.319 1.104-2.319 2.484-.054 1.079.813 2.399 2.32 2.516.43 0 .835-.109 1.19-.3a3 3 0 0 1-1.044-4.56 28.47 28.47 0 0 0-.058-.138z"/></g><path fill="url(#B)" fill-rule="evenodd" d="M22.589 9.002a2.5 2.5 0 1 0 1.1 4.698 3 3 0 0 1-1.043-4.56 16.694 16.694 0 0 0-.057-.138z" clip-rule="evenodd"/><g filter="url(#C)"><circle cx="16.5" cy="21.5" r="2.5" stroke="url(#D)" stroke-width=".25"/></g><circle cx="16.5" cy="21.5" r="2.5" fill="url(#E)"/><circle cx="16.5" cy="21.5" r="2.5" fill="url(#F)"/><circle cx="16.5" cy="21.5" r="2.5" fill="url(#G)"/><circle cx="16.5" cy="21.5" r="2.5" fill="url(#H)"/><g filter="url(#I)"><path stroke="url(#J)" stroke-width=".2" d="M10.28 28.578c-2.166-.99-4.003-2.452-5.407-4.344C5.513 23.422 6.385 23 7.5 23a3.5 3.5 0 0 1 3.5 3.5c0 .852-.214 1.471-.72 2.078z"/></g><path fill="url(#K)" d="M10.189 28.74a14.054 14.054 0 0 1-5.439-4.405 3.5 3.5 0 1 1 5.439 4.406z"/></svg>