<svg xmlns="http://www.w3.org/2000/svg" width="32" height="32" fill="none"><radialGradient id="a" cx="0" cy="0" r="1" gradientTransform="rotate(130.168 9.936 9.935) scale(27.8086)" gradientUnits="userSpaceOnUse"><stop offset=".232" stop-color="#f24756"/><stop offset="1" stop-color="#b22945"/></radialGradient><linearGradient id="b" x1="15.757" x2="15.757" y1="2" y2="8.5" gradientUnits="userSpaceOnUse"><stop offset="0" stop-color="#dd4577"/><stop offset="1" stop-color="#ef4b5e" stop-opacity="0"/></linearGradient><radialGradient id="c" cx="0" cy="0" r="1" gradientTransform="matrix(-10.62492 10.12505 -10.91102 -11.4497 24.436 10.75)" gradientUnits="userSpaceOnUse"><stop offset=".179" stop-color="#ff6180"/><stop offset="1" stop-color="#e5364a" stop-opacity="0"/></radialGradient><radialGradient id="d" cx="0" cy="0" r="1" gradientTransform="matrix(-19.25 0 0 -20 20.249 16)" gradientUnits="userSpaceOnUse"><stop offset=".62" stop-color="#b73e4b" stop-opacity="0"/><stop offset=".951" stop-color="#d48387"/></radialGradient><radialGradient id="e" cx="0" cy="0" r="1" gradientTransform="matrix(0 21 -23.3208 0 15.757 9)" gradientUnits="userSpaceOnUse"><stop offset=".863" stop-color="#b83c5a" stop-opacity="0"/><stop offset="1" stop-color="#b83c5a"/><stop offset="1" stop-color="#ac4064"/></radialGradient><path fill="url(#a)" d="M29.757 16c0 7.732-6.268 14-14 14s-14-6.268-14-14 6.268-14 14-14 14 6.268 14 14z"/><path fill="url(#b)" d="M29.757 16c0 7.732-6.268 14-14 14s-14-6.268-14-14 6.268-14 14-14 14 6.268 14 14z"/><path fill="url(#c)" d="M29.757 16c0 7.732-6.268 14-14 14s-14-6.268-14-14 6.268-14 14-14 14 6.268 14 14z"/><path fill="url(#d)" d="M29.757 16c0 7.732-6.268 14-14 14s-14-6.268-14-14 6.268-14 14-14 14 6.268 14 14z"/><path fill="url(#e)" d="M29.757 16c0 7.732-6.268 14-14 14s-14-6.268-14-14 6.268-14 14-14 14 6.268 14 14z"/></svg>