<svg xmlns="http://www.w3.org/2000/svg" width="32" height="32" fill="none"><linearGradient id="a" x1="16.375" x2="16.375" y1="14.848" y2="16.848" gradientUnits="userSpaceOnUse"><stop offset="0" stop-color="#72c8f9"/><stop offset="1" stop-color="#73aef2" stop-opacity="0"/></linearGradient><linearGradient id="b" x1="19.191" x2="15.947" y1="25.113" y2="24.491" gradientUnits="userSpaceOnUse"><stop offset="0" stop-color="#73d2ff"/><stop offset="1" stop-color="#73aef2" stop-opacity="0"/></linearGradient><linearGradient id="c" x1="11.172" x2="7.234" y1="15" y2="9.875" gradientUnits="userSpaceOnUse"><stop offset=".33" stop-color="#2e97d8"/><stop offset="1" stop-color="#1c82ca"/></linearGradient><linearGradient id="d" x1="2.484" x2="6.297" y1="16.063" y2="13.125" gradientUnits="userSpaceOnUse"><stop offset="0" stop-color="#2e8bdb"/><stop offset="1" stop-color="#2e8bdb" stop-opacity="0"/></linearGradient><linearGradient id="e" x1="13.57" x2="12.704" y1="12.471" y2="11.916" gradientUnits="userSpaceOnUse"><stop offset="0" stop-color="#32b3ea"/><stop offset="1" stop-color="#32b3ea" stop-opacity="0"/></linearGradient><radialGradient id="f" cx="0" cy="0" r="1" gradientTransform="matrix(8.25 -.82813 1.11925 11.15027 17.984 12.5)" gradientUnits="userSpaceOnUse"><stop offset="0" stop-color="#20d5fc"/><stop offset="1" stop-color="#20bff7"/></radialGradient><linearGradient id="g" x1="19.578" x2="20.203" y1="13.594" y2="13.188" gradientUnits="userSpaceOnUse"><stop offset=".17" stop-color="#20d0f6"/><stop offset="1" stop-color="#20d0f6" stop-opacity="0"/></linearGradient><linearGradient id="h" x1="9.019" x2="15.99" y1="15.375" y2="29.734" gradientUnits="userSpaceOnUse"><stop offset=".379" stop-color="#296bcc"/><stop offset="1" stop-color="#3e7de1"/></linearGradient><linearGradient id="i" x1="9.019" x2="9.019" y1="15.375" y2="15.781" gradientUnits="userSpaceOnUse"><stop offset="0" stop-color="#2d75d2"/><stop offset="1" stop-color="#2d75d2" stop-opacity="0"/></linearGradient><radialGradient id="j" cx="0" cy="0" r="1" gradientTransform="matrix(5.72464 -10.31253 5.40695 3.00148 17.234 29.563)" gradientUnits="userSpaceOnUse"><stop offset="0" stop-color="#42a2ec"/><stop offset="1" stop-color="#3294e4"/></radialGradient><linearGradient id="k" x1="17.563" x2="18.063" y1="24.898" y2="25.094" gradientUnits="userSpaceOnUse"><stop offset="0" stop-color="#368fe1"/><stop offset="1" stop-color="#368fe1" stop-opacity="0"/></linearGradient><linearGradient id="l" x1="22.959" x2="22.959" y1="15.063" y2="16.094" gradientUnits="userSpaceOnUse"><stop offset="0" stop-color="#309ee9"/><stop offset="1" stop-color="#309ee9" stop-opacity="0"/></linearGradient><linearGradient id="m" x1="19.672" x2="11.078" y1="11.312" y2="17.312" gradientUnits="userSpaceOnUse"><stop offset="0" stop-color="#6ce8fe"/><stop offset=".642" stop-color="#68caea"/></linearGradient><path fill="#72adf1" d="m9.234 14.25 6.75 15.914 7.532-15.914z"/><path fill="url(#a)" d="m9.234 14.25 6.75 15.914 7.532-15.914z"/><path fill="url(#b)" d="m9.234 14.25 6.75 15.914 7.532-15.914z"/><path fill="url(#c)" d="m7.547 7.969-5.5 7.406h9.031L16 7.969z"/><path fill="url(#d)" d="m7.547 7.969-5.5 7.406h9.031L16 7.969z"/><path fill="url(#e)" d="m7.547 7.969-5.5 7.406h9.031L16 7.969z"/><path fill="url(#f)" d="m24.43 7.969 5.5 7.406h-9.032l-4.921-7.406z"/><path fill="url(#g)" d="m24.43 7.969 5.5 7.406h-9.032l-4.921-7.406z"/><path fill="url(#h)" d="M15.99 30.174 2.047 15.375h9.031z"/><path fill="url(#i)" d="M15.99 30.174 2.047 15.375h9.031z"/><path fill="url(#j)" d="m15.984 30.164 13.95-14.789h-9.032z"/><path fill="url(#k)" d="m15.984 30.164 13.95-14.789h-9.032z"/><path fill="url(#l)" d="m15.984 30.164 13.95-14.789h-9.032z"/><path fill="url(#m)" d="M11.078 15.375h9.82l-4.91-7.389z"/></svg>