<svg xmlns="http://www.w3.org/2000/svg" width="32" height="32" fill="none"><filter id="i" width="14.525" height="18.91" x="9.49" y="11.085" color-interpolation-filters="sRGB" filterUnits="userSpaceOnUse"><feFlood flood-opacity="0" result="BackgroundImageFix"/><feBlend in="SourceGraphic" in2="BackgroundImageFix" result="shape"/><feColorMatrix in="SourceAlpha" result="hardAlpha" values="0 0 0 0 0 0 0 0 0 0 0 0 0 0 0 0 0 0 127 0"/><feOffset dx=".5"/><feGaussianBlur stdDeviation=".25"/><feComposite in2="hardAlpha" k2="-1" k3="1" operator="arithmetic"/><feColorMatrix values="0 0 0 0 0.952941 0 0 0 0 0.615686 0 0 0 0 0.364706 0 0 0 1 0"/><feBlend in2="shape" result="effect1_innerShadow_18_15821"/></filter><filter id="o" width="11.424" height="22.115" x="5.723" y="2.327" color-interpolation-filters="sRGB" filterUnits="userSpaceOnUse"><feFlood flood-opacity="0" result="BackgroundImageFix"/><feBlend in="SourceGraphic" in2="BackgroundImageFix" result="shape"/><feGaussianBlur result="effect1_foregroundBlur_18_15821" stdDeviation=".625"/></filter><filter id="q" width="6.868" height="14.084" x="4.492" y="6.374" color-interpolation-filters="sRGB" filterUnits="userSpaceOnUse"><feFlood flood-opacity="0" result="BackgroundImageFix"/><feBlend in="SourceGraphic" in2="BackgroundImageFix" result="shape"/><feGaussianBlur result="effect1_foregroundBlur_18_15821" stdDeviation=".75"/></filter><radialGradient id="a" cx="0" cy="0" r="1" gradientTransform="matrix(-17.09808 -.15697 .23672 -25.78501 24.002 19.72)" gradientUnits="userSpaceOnUse"><stop offset="0" stop-color="#ff953d"/><stop offset="1" stop-color="#ff5141"/></radialGradient><radialGradient id="b" cx="0" cy="0" r="1" gradientTransform="matrix(-9.58662 -3.88551 6.70473 -16.5424 10.372 15.655)" gradientUnits="userSpaceOnUse"><stop offset="0" stop-color="#ce5327"/><stop offset="1" stop-color="#ce5327" stop-opacity="0"/></radialGradient><linearGradient id="c" x1="18.336" x2="18.336" y1="29.944" y2="24.846" gradientUnits="userSpaceOnUse"><stop offset="0" stop-color="#ff7583"/><stop offset="1" stop-color="#ff7583" stop-opacity="0"/></linearGradient><radialGradient id="d" cx="0" cy="0" r="1" gradientTransform="matrix(2.83591 1.26351 -10.45887 23.47458 4.957 14.391)" gradientUnits="userSpaceOnUse"><stop offset="0" stop-color="#ffaa7b"/><stop offset="1" stop-color="#ffaa7b" stop-opacity="0"/></radialGradient><radialGradient id="e" cx="0" cy="0" r="1" gradientTransform="matrix(.843 3.74668 -4.675 1.05188 9.31 6.25)" gradientUnits="userSpaceOnUse"><stop offset="0" stop-color="#ff5e47"/><stop offset="1" stop-color="#ff5e47" stop-opacity="0"/></radialGradient><radialGradient id="f" cx="0" cy="0" r="1" gradientTransform="matrix(.37467 10.13047 -9.3768 .3468 16.429 1.366)" gradientUnits="userSpaceOnUse"><stop offset="0" stop-color="#ff2f3c"/><stop offset="1" stop-color="#ff2f3c" stop-opacity="0"/></radialGradient><radialGradient id="g" cx="0" cy="0" r="1" gradientTransform="matrix(2.07795 .9835 -1.9737 4.17002 13.9 4.8)" gradientUnits="userSpaceOnUse"><stop offset="0" stop-color="#ff846c"/><stop offset="1" stop-color="#ff846c" stop-opacity="0"/></radialGradient><radialGradient id="h" cx="0" cy="0" r="1" gradientTransform="matrix(-.89842 2.09375 -.4798 -.20588 12.458 8.21)" gradientUnits="userSpaceOnUse"><stop offset="0" stop-color="#ffa682"/><stop offset="1" stop-color="#ffa682" stop-opacity="0"/></radialGradient><radialGradient id="j" cx="0" cy="0" r="1" gradientTransform="matrix(-9.82978 -1.98953 2.47754 -12.2409 21.205 24.376)" gradientUnits="userSpaceOnUse"><stop offset="0" stop-color="#ffda2f"/><stop offset="1" stop-color="#ff8e41"/></radialGradient><radialGradient id="k" cx="0" cy="0" r="1" gradientTransform="matrix(5.05803 13.20707 -11.47514 4.39474 12.401 8.593)" gradientUnits="userSpaceOnUse"><stop offset="0" stop-color="#fd5639"/><stop offset="1" stop-color="#fe5533" stop-opacity="0"/></radialGradient><radialGradient id="l" cx="0" cy="0" r="1" gradientTransform="matrix(-9.74917 .98358 -2.40823 -23.87023 19.239 20.629)" gradientUnits="userSpaceOnUse"><stop offset=".628" stop-color="#d7812d" stop-opacity="0"/><stop offset="1" stop-color="#d7812d"/></radialGradient><linearGradient id="m" x1="16.503" x2="16.503" y1="10.612" y2="14.259" gradientUnits="userSpaceOnUse"><stop offset="0" stop-color="#f95131"/><stop offset="1" stop-color="#f95131" stop-opacity="0"/></linearGradient><radialGradient id="n" cx="0" cy="0" r="1" gradientTransform="matrix(-12.83239 9.6478 -6.98132 -9.28575 22.986 18.802)" gradientUnits="userSpaceOnUse"><stop offset=".772" stop-color="#f18a52" stop-opacity="0"/><stop offset="1" stop-color="#f18a52"/></radialGradient><linearGradient id="p" x1="14.996" x2="7.655" y1="4.255" y2="22.732" gradientUnits="userSpaceOnUse"><stop offset="0" stop-color="#ff7558"/><stop offset="1" stop-color="#f38758"/></linearGradient><linearGradient id="r" x1="9.541" x2="5.582" y1="8.144" y2="19.479" gradientUnits="userSpaceOnUse"><stop offset="0" stop-color="#ff815b"/><stop offset="1" stop-color="#ff9c6d"/></linearGradient><path fill="url(#a)" d="M12.555 8.935c1.537-2.397 2.447-4.611 2.921-6.177.182-.6.95-.845 1.406-.415 6.873 6.481 9.12 11.43 9.567 17.148.328 5.531-2.39 10.453-9.687 10.453-6.85 0-11.907-4.781-11.22-12.36.412-4.528 2.173-7.979 3.58-10.033.438-.639 1.351-.648 1.856-.06l1.259 1.466c.087.101.247.09.318-.022z"/><path fill="url(#b)" d="M12.555 8.935c1.537-2.397 2.447-4.611 2.921-6.177.182-.6.95-.845 1.406-.415 6.873 6.481 9.12 11.43 9.567 17.148.328 5.531-2.39 10.453-9.687 10.453-6.85 0-11.907-4.781-11.22-12.36.412-4.528 2.173-7.979 3.58-10.033.438-.639 1.351-.648 1.856-.06l1.259 1.466c.087.101.247.09.318-.022z"/><path fill="url(#c)" d="M12.555 8.935c1.537-2.397 2.447-4.611 2.921-6.177.182-.6.95-.845 1.406-.415 6.873 6.481 9.12 11.43 9.567 17.148.328 5.531-2.39 10.453-9.687 10.453-6.85 0-11.907-4.781-11.22-12.36.412-4.528 2.173-7.979 3.58-10.033.438-.639 1.351-.648 1.856-.06l1.259 1.466c.087.101.247.09.318-.022z"/><path fill="url(#d)" d="M12.555 8.935c1.537-2.397 2.447-4.611 2.921-6.177.182-.6.95-.845 1.406-.415 6.873 6.481 9.12 11.43 9.567 17.148.328 5.531-2.39 10.453-9.687 10.453-6.85 0-11.907-4.781-11.22-12.36.412-4.528 2.173-7.979 3.58-10.033.438-.639 1.351-.648 1.856-.06l1.259 1.466c.087.101.247.09.318-.022z"/><path fill="url(#e)" d="M12.555 8.935c1.537-2.397 2.447-4.611 2.921-6.177.182-.6.95-.845 1.406-.415 6.873 6.481 9.12 11.43 9.567 17.148.328 5.531-2.39 10.453-9.687 10.453-6.85 0-11.907-4.781-11.22-12.36.412-4.528 2.173-7.979 3.58-10.033.438-.639 1.351-.648 1.856-.06l1.259 1.466c.087.101.247.09.318-.022z"/><path fill="url(#f)" d="M12.555 8.935c1.537-2.397 2.447-4.611 2.921-6.177.182-.6.95-.845 1.406-.415 6.873 6.481 9.12 11.43 9.567 17.148.328 5.531-2.39 10.453-9.687 10.453-6.85 0-11.907-4.781-11.22-12.36.412-4.528 2.173-7.979 3.58-10.033.438-.639 1.351-.648 1.856-.06l1.259 1.466c.087.101.247.09.318-.022z"/><path fill="url(#g)" d="M12.555 8.935c1.537-2.397 2.447-4.611 2.921-6.177.182-.6.95-.845 1.406-.415 6.873 6.481 9.12 11.43 9.567 17.148.328 5.531-2.39 10.453-9.687 10.453-6.85 0-11.907-4.781-11.22-12.36.412-4.528 2.173-7.979 3.58-10.033.438-.639 1.351-.648 1.856-.06l1.259 1.466c.087.101.247.09.318-.022z"/><path fill="url(#h)" d="M12.555 8.935c1.537-2.397 2.447-4.611 2.921-6.177.182-.6.95-.845 1.406-.415 6.873 6.481 9.12 11.43 9.567 17.148.328 5.531-2.39 10.453-9.687 10.453-6.85 0-11.907-4.781-11.22-12.36.412-4.528 2.173-7.979 3.58-10.033.438-.639 1.351-.648 1.856-.06l1.259 1.466c.087.101.247.09.318-.022z"/><g filter="url(#i)"><path fill="url(#j)" d="M10.178 19.877c1.302-3.1 3.975-6.529 5.78-8.39a1.336 1.336 0 0 1 1.872-.038c3.461 3.189 4.503 6.072 5.387 9.428.92 3.492 0 9.118-6.921 9.118-5.96 0-8.026-5.578-6.118-10.118z"/><path fill="url(#k)" d="M10.178 19.877c1.302-3.1 3.975-6.529 5.78-8.39a1.336 1.336 0 0 1 1.872-.038c3.461 3.189 4.503 6.072 5.387 9.428.92 3.492 0 9.118-6.921 9.118-5.96 0-8.026-5.578-6.118-10.118z"/><path fill="url(#l)" d="M10.178 19.877c1.302-3.1 3.975-6.529 5.78-8.39a1.336 1.336 0 0 1 1.872-.038c3.461 3.189 4.503 6.072 5.387 9.428.92 3.492 0 9.118-6.921 9.118-5.96 0-8.026-5.578-6.118-10.118z"/></g><path fill="url(#m)" d="M10.178 19.877c1.302-3.1 3.975-6.529 5.78-8.39a1.336 1.336 0 0 1 1.872-.038c3.461 3.189 4.503 6.072 5.387 9.428.92 3.492 0 9.118-6.921 9.118-5.96 0-8.026-5.578-6.118-10.118z"/><path fill="url(#n)" d="M10.178 19.877c1.302-3.1 3.975-6.529 5.78-8.39a1.336 1.336 0 0 1 1.872-.038c3.461 3.189 4.503 6.072 5.387 9.428.92 3.492 0 9.118-6.921 9.118-5.96 0-8.026-5.578-6.118-10.118z"/><g filter="url(#o)"><path fill="url(#p)" d="M11.814 11.539c2.315-3.39 3.67-7.058 4.083-7.962-.603 4.634-2.36 8.028-5.668 12.398-2.646 3.496-3.124 6.488-3.101 7.217-.827-5.562 1.791-7.416 4.686-11.653z"/></g><g filter="url(#q)"><path fill="url(#r)" d="M9.814 7.874c-1.3 1.614-3.884 6.09-3.82 11.084 1.28-5.122 4.275-6.736 3.82-11.084z"/></g></svg>