<svg xmlns="http://www.w3.org/2000/svg" xmlns:xlink="http://www.w3.org/1999/xlink" width="32" height="32" fill="none"><filter id="d" width="28.2" height="28" x="2" y="2" color-interpolation-filters="sRGB" filterUnits="userSpaceOnUse"><feFlood flood-opacity="0" result="BackgroundImageFix"/><feBlend in="SourceGraphic" in2="BackgroundImageFix" result="shape"/><feColorMatrix in="SourceAlpha" result="hardAlpha" values="0 0 0 0 0 0 0 0 0 0 0 0 0 0 0 0 0 0 127 0"/><feOffset dx=".2"/><feGaussianBlur stdDeviation="1"/><feComposite in2="hardAlpha" k2="-1" k3="1" operator="arithmetic"/><feColorMatrix values="0 0 0 0 0.470588 0 0 0 0 0.447059 0 0 0 0 0.501961 0 0 0 1 0"/><feBlend in2="shape" result="effect1_innerShadow_18_13946"/></filter><filter id="p" width="5.707" height="6.614" x="23.55" y="20.55" color-interpolation-filters="sRGB" filterUnits="userSpaceOnUse"><feFlood flood-opacity="0" result="BackgroundImageFix"/><feBlend in="SourceGraphic" in2="BackgroundImageFix" result="shape"/><feGaussianBlur result="effect1_foregroundBlur_18_13946" stdDeviation=".15"/></filter><filter id="r" width="4.148" height="3.7" x="13.926" y="3.65" color-interpolation-filters="sRGB" filterUnits="userSpaceOnUse"><feFlood flood-opacity="0" result="BackgroundImageFix"/><feBlend in="SourceGraphic" in2="BackgroundImageFix" result="shape"/><feGaussianBlur result="effect1_foregroundBlur_18_13946" stdDeviation=".1"/></filter><filter id="v" width="6" height="6" x="19.5" y="8.5" color-interpolation-filters="sRGB" filterUnits="userSpaceOnUse"><feFlood flood-opacity="0" result="BackgroundImageFix"/><feBlend in="SourceGraphic" in2="BackgroundImageFix" result="shape"/><feGaussianBlur result="effect1_foregroundBlur_18_13946" stdDeviation=".15"/></filter><filter id="z" width="5.7" height="5.7" x="13.65" y="18.65" color-interpolation-filters="sRGB" filterUnits="userSpaceOnUse"><feFlood flood-opacity="0" result="BackgroundImageFix"/><feBlend in="SourceGraphic" in2="BackgroundImageFix" result="shape"/><feGaussianBlur result="effect1_foregroundBlur_18_13946" stdDeviation=".1"/></filter><radialGradient id="c" cx="0" cy="0" r="1" gradientTransform="rotate(133.363 8.703 9.384) scale(24.7588)" gradientUnits="userSpaceOnUse"><stop offset="0" stop-color="#feed6e"/><stop offset="1" stop-color="#f7ca32"/></radialGradient><radialGradient id="e" cx="0" cy="0" r="1" gradientTransform="matrix(-8.99908 16.19807 -12.80408 -7.1135 14.397 3.712)" gradientUnits="userSpaceOnUse"><stop offset="0" stop-color="#7c619b"/><stop offset="1" stop-color="#473858"/></radialGradient><radialGradient id="f" cx="0" cy="0" r="1" gradientTransform="matrix(-1.5186 -5.68059 8.7298 -2.33375 13.16 30.372)" gradientUnits="userSpaceOnUse"><stop offset="0" stop-color="#6a4d88"/><stop offset="1" stop-color="#6a4d88" stop-opacity="0"/></radialGradient><linearGradient id="a"><stop offset="0" stop-color="#f5c224"/><stop offset="1" stop-color="#ffef71"/></linearGradient><linearGradient xlink:href="#a" id="g" x1="16.5" x2="14.5" y1="4.5" y2="6.5" gradientUnits="userSpaceOnUse"/><linearGradient xlink:href="#a" id="h" x1="24.167" x2="20.833" y1="9.833" y2="13.167" gradientUnits="userSpaceOnUse"/><linearGradient xlink:href="#a" id="i" x1="18.167" x2="14.833" y1="19.833" y2="23.167" gradientUnits="userSpaceOnUse"/><radialGradient id="j" cx="0" cy="0" r="1" gradientTransform="matrix(5.00567 .33575 -.2758 4.1118 5.623 25.535)" gradientUnits="userSpaceOnUse"><stop offset="0" stop-color="#524560"/><stop offset="1" stop-color="#5d4375"/></radialGradient><radialGradient id="k" cx="0" cy="0" r="1" gradientTransform="matrix(-2.4688 -2.6094 2.50068 -2.36594 7.875 26.089)" gradientUnits="userSpaceOnUse"><stop offset=".897" stop-color="#39264b" stop-opacity="0"/><stop offset=".974" stop-color="#39264b"/></radialGradient><linearGradient id="l" x1="29.833" x2="25.167" y1="22.167" y2="26.833" gradientUnits="userSpaceOnUse"><stop offset="0" stop-color="#f6c72d"/><stop offset="1" stop-color="#fff073"/></linearGradient><radialGradient id="m" cx="0" cy="0" r="1" gradientTransform="matrix(-7.59378 11.87497 -14.81966 -9.47684 25.922 10.937)" gradientUnits="userSpaceOnUse"><stop offset="0" stop-color="#fff9ac"/><stop offset="1" stop-color="#ffc64f"/></radialGradient><radialGradient id="n" cx="0" cy="0" r="1" gradientTransform="matrix(-13.50015 22.87486 -28.91509 -17.06493 28.75 6.073)" gradientUnits="userSpaceOnUse"><stop offset=".666" stop-color="#fa9f56" stop-opacity="0"/><stop offset="1" stop-color="#ee8965"/></radialGradient><radialGradient id="o" cx="0" cy="0" r="1" gradientTransform="matrix(9.50002 19.80199 -20.52661 9.84766 14 10.198)" gradientUnits="userSpaceOnUse"><stop offset=".837" stop-color="#d7908f" stop-opacity="0"/><stop offset="1" stop-color="#d7908f"/></radialGradient><linearGradient id="q" x1="27.982" x2="24.639" y1="20.656" y2="26.313" gradientUnits="userSpaceOnUse"><stop offset="0" stop-color="#f5bd64"/><stop offset="1" stop-color="#ffdc75"/></linearGradient><radialGradient id="s" cx="0" cy="0" r="1" gradientTransform="matrix(-3.00536 0 0 -3.27072 17.281 5.5)" gradientUnits="userSpaceOnUse"><stop offset=".437" stop-color="#f3bb63"/><stop offset="1" stop-color="#fff3a5"/></radialGradient><radialGradient id="t" cx="0" cy="0" r="1" gradientTransform="matrix(2.75536 0 0 2.97042 14.969 5.5)" gradientUnits="userSpaceOnUse"><stop offset=".639" stop-color="#cd9e56" stop-opacity="0"/><stop offset="1" stop-color="#cd9e56"/></radialGradient><linearGradient id="u" x1="17.724" x2="16.544" y1="5.17" y2="5.17" gradientUnits="userSpaceOnUse"><stop offset="0" stop-color="#fdc36b"/><stop offset="1" stop-color="#ffdd7b"/></linearGradient><radialGradient id="w" cx="0" cy="0" r="1" gradientTransform="matrix(5.625 -4.39546 1.44644 1.85106 20 13.396)" gradientUnits="userSpaceOnUse"><stop offset=".2" stop-color="#fff8b1"/><stop offset="1" stop-color="#ffd975"/></radialGradient><linearGradient id="x" x1="20.577" x2="23.646" y1="9" y2="14" gradientUnits="userSpaceOnUse"><stop offset="0" stop-color="#fff9ac"/><stop offset=".492" stop-color="#fff9ac" stop-opacity="0"/><stop offset="1" stop-color="#fff9ac"/></linearGradient><linearGradient id="b"><stop offset="0" stop-color="#0f0f0f"/><stop offset="1" stop-color="#704e8d"/></linearGradient><linearGradient xlink:href="#b" id="y" x1="18.167" x2="14.833" y1="19.833" y2="23.167" gradientUnits="userSpaceOnUse"/><radialGradient id="A" cx="0" cy="0" r="1" gradientTransform="rotate(135 4.38 13.926) scale(3.93533 4.69999)" gradientUnits="userSpaceOnUse"><stop offset=".183" stop-color="#f29e64"/><stop offset="1" stop-color="#ffd87e"/></radialGradient><radialGradient id="B" cx="0" cy="0" r="1" gradientTransform="matrix(3.28125 -3.125 2.54645 2.67377 15.094 23.01)" gradientUnits="userSpaceOnUse"><stop offset=".837" stop-color="#e3915b" stop-opacity="0"/><stop offset="1" stop-color="#e3915b"/></radialGradient><linearGradient id="C" x1="18.25" x2="14.369" y1="19.32" y2="23.257" gradientUnits="userSpaceOnUse"><stop offset="0" stop-color="#fbac52"/><stop offset="1" stop-color="#ffb053"/></linearGradient><radialGradient id="D" cx="0" cy="0" r="1" gradientTransform="rotate(118.867 2.135 8.518) scale(5.56671)" gradientUnits="userSpaceOnUse"><stop offset="0" stop-color="#664783"/><stop offset="1" stop-color="#654b7f"/></radialGradient><radialGradient id="E" cx="0" cy="0" r="1" gradientTransform="matrix(-3.65738 -.7461 .79628 -3.90337 9.5 12.5)" gradientUnits="userSpaceOnUse"><stop offset=".828" stop-color="#8b6ba9" stop-opacity="0"/><stop offset="1" stop-color="#8b6ba9"/></radialGradient><linearGradient xlink:href="#b" id="F" x1="29.833" x2="25.167" y1="22.167" y2="26.833" gradientUnits="userSpaceOnUse"/><linearGradient id="G" x1="26.059" x2="25.915" y1="21.826" y2="25.986" gradientUnits="userSpaceOnUse"><stop offset="0" stop-color="#ffd36a"/><stop offset="1" stop-color="#efb872"/></linearGradient><radialGradient id="H" cx="0" cy="0" r="1" gradientTransform="matrix(-.87214 -5.64197 4.67917 -.72331 27.35 26.823)" gradientUnits="userSpaceOnUse"><stop offset=".85" stop-color="#dfa14c" stop-opacity="0"/><stop offset="1" stop-color="#c28255"/></radialGradient><radialGradient id="I" cx="0" cy="0" r="1" gradientTransform="matrix(-2.5625 3.96876 -3.37768 -2.18086 27.139 23.125)" gradientUnits="userSpaceOnUse"><stop offset=".718" stop-color="#ffe38a" stop-opacity="0"/><stop offset=".952" stop-color="#ffe38a"/></radialGradient><linearGradient id="J" x1="12.61" x2="7.633" y1="10.904" y2="13.038" gradientUnits="userSpaceOnUse"><stop offset="0" stop-color="#c29346"/><stop offset="1" stop-color="#e1aa4e"/></linearGradient><circle cx="16" cy="16" r="14" fill="url(#c)"/><g filter="url(#d)"><circle cx="16" cy="16" r="14" fill="url(#e)"/><circle cx="16" cy="16" r="14" fill="url(#f)"/></g><circle cx="15.5" cy="5.5" r="1.5" fill="url(#g)"/><circle cx="22.5" cy="11.5" r="2.5" fill="url(#h)"/><circle cx="16.5" cy="21.5" r="2.5" fill="url(#i)"/><g fill-rule="evenodd" clip-rule="evenodd"><path fill="url(#j)" d="M10.189 28.74a14.054 14.054 0 0 1-5.439-4.405 3.5 3.5 0 1 1 5.439 4.406z"/><path fill="url(#k)" d="M10.189 28.74a14.054 14.054 0 0 1-5.439-4.405 3.5 3.5 0 1 1 5.439 4.406z"/><path fill="url(#l)" d="M28.955 21.316a14.04 14.04 0 0 1-4.073 5.507 3.5 3.5 0 0 1 4.074-5.507z"/><path fill="url(#m)" d="M15.681 29.996c.106.003.212.004.319.004 7.732 0 14-6.268 14-14S23.732 2 16 2c-.107 0-.213.001-.32.004C11.606 5.304 9 10.348 9 16c0 5.652 2.606 10.697 6.681 13.996z"/><path fill="url(#n)" d="M15.681 29.996c.106.003.212.004.319.004 7.732 0 14-6.268 14-14S23.732 2 16 2c-.107 0-.213.001-.32.004C11.606 5.304 9 10.348 9 16c0 5.652 2.606 10.697 6.681 13.996z"/><path fill="url(#o)" d="M15.681 29.996c.106.003.212.004.319.004 7.732 0 14-6.268 14-14S23.732 2 16 2c-.107 0-.213.001-.32.004C11.606 5.304 9 10.348 9 16c0 5.652 2.606 10.697 6.681 13.996z"/></g><g filter="url(#p)"><path stroke="url(#q)" stroke-width=".3" d="M28.764 21.234c-.887 2.16-2.255 3.963-4.032 5.422-.548-.618-.732-1.265-.732-2.156a3.5 3.5 0 0 1 3.5-3.5c.52 0 .82.032 1.264.234z"/></g><g filter="url(#r)"><ellipse cx="16" cy="5.5" fill="url(#s)" rx="1.724" ry="1.5"/><ellipse cx="16" cy="5.5" fill="url(#t)" rx="1.724" ry="1.5"/><path stroke="url(#u)" stroke-width=".15" d="M16 7.075c.984 0 1.8-.696 1.8-1.575s-.817-1.575-1.8-1.575-1.8.696-1.8 1.575.817 1.575 1.8 1.575z"/></g><g filter="url(#v)"><circle cx="22.5" cy="11.5" r="2.5" fill="url(#w)"/><circle cx="22.5" cy="11.5" r="2.6" stroke="url(#x)" stroke-width=".2"/></g><circle cx="16.5" cy="21.5" r="2.5" fill="url(#y)"/><g filter="url(#z)"><circle cx="16.5" cy="21.5" r="2.5" fill="url(#A)"/><circle cx="16.5" cy="21.5" r="2.5" fill="url(#B)"/><circle cx="16.5" cy="21.5" r="2.575" stroke="url(#C)" stroke-width=".15"/></g><circle cx="9.5" cy="12.5" r="3.5" fill="url(#D)"/><circle cx="9.5" cy="12.5" r="3.5" fill="url(#E)"/><path fill="url(#F)" fill-rule="evenodd" d="M28.955 21.316a14.04 14.04 0 0 1-4.073 5.507 3.5 3.5 0 0 1 4.074-5.507z" clip-rule="evenodd"/><path fill="url(#G)" fill-rule="evenodd" d="M28.955 21.316a14.04 14.04 0 0 1-4.073 5.507 3.5 3.5 0 0 1 4.074-5.507z" clip-rule="evenodd"/><path fill="url(#H)" fill-rule="evenodd" d="M28.955 21.316a14.04 14.04 0 0 1-4.073 5.507 3.5 3.5 0 0 1 4.074-5.507z" clip-rule="evenodd"/><path fill="url(#I)" fill-rule="evenodd" d="M28.955 21.316a14.04 14.04 0 0 1-4.073 5.507 3.5 3.5 0 0 1 4.074-5.507z" clip-rule="evenodd"/><path fill="url(#J)" d="M9 15.965c1.078-.798 2.188-2.298 2.188-3.954 0-.849-.282-2.094-.821-2.903A3.502 3.502 0 0 1 9 15.965z"/></svg>