<svg xmlns="http://www.w3.org/2000/svg" xmlns:xlink="http://www.w3.org/1999/xlink" width="32" height="32" fill="none"><filter id="b" width="12.737" height="11.965" x="13.049" y="17.2" color-interpolation-filters="sRGB" filterUnits="userSpaceOnUse"><feFlood flood-opacity="0" result="BackgroundImageFix"/><feBlend in="SourceGraphic" in2="BackgroundImageFix" result="shape"/><feColorMatrix in="SourceAlpha" result="hardAlpha" values="0 0 0 0 0 0 0 0 0 0 0 0 0 0 0 0 0 0 127 0"/><feOffset dx=".5" dy="-.5"/><feGaussianBlur stdDeviation=".375"/><feComposite in2="hardAlpha" k2="-1" k3="1" operator="arithmetic"/><feColorMatrix values="0 0 0 0 0.972549 0 0 0 0 0.6 0 0 0 0 0.231373 0 0 0 1 0"/><feBlend in2="shape" result="effect1_innerShadow_18_17893"/><feColorMatrix in="SourceAlpha" result="hardAlpha" values="0 0 0 0 0 0 0 0 0 0 0 0 0 0 0 0 0 0 127 0"/><feOffset dx=".3"/><feGaussianBlur stdDeviation=".25"/><feComposite in2="hardAlpha" k2="-1" k3="1" operator="arithmetic"/><feColorMatrix values="0 0 0 0 0.831373 0 0 0 0 0.54902 0 0 0 0 0.254902 0 0 0 1 0"/><feBlend in2="effect1_innerShadow_18_17893" result="effect2_innerShadow_18_17893"/></filter><filter id="c" width="11.679" height="10.852" x="13.749" y="17.879" color-interpolation-filters="sRGB" filterUnits="userSpaceOnUse"><feFlood flood-opacity="0" result="BackgroundImageFix"/><feBlend in="SourceGraphic" in2="BackgroundImageFix" result="shape"/><feGaussianBlur result="effect1_foregroundBlur_18_17893" stdDeviation=".25"/></filter><linearGradient id="a"><stop offset="0" stop-color="#ffea7b"/><stop offset="1" stop-color="#ffea7b" stop-opacity="0"/></linearGradient><linearGradient xlink:href="#a" id="d" x1="25.375" x2="21.596" y1="23.689" y2="25.734" gradientUnits="userSpaceOnUse"/><radialGradient xlink:href="#a" id="e" cx="0" cy="0" r="1" gradientTransform="matrix(-2.14277 1.0916 -1.28303 -2.51853 16.883 25.145)" gradientUnits="userSpaceOnUse"/><radialGradient id="f" cx="0" cy="0" r="1" gradientTransform="matrix(14.5 -9.125 3.43262 5.45458 10.12 25.25)" gradientUnits="userSpaceOnUse"><stop offset=".024" stop-color="#fab66e"/><stop offset="1" stop-color="#ec9547"/></radialGradient><linearGradient id="g" x1="5.746" x2="13.558" y1="14.25" y2="18.375" gradientUnits="userSpaceOnUse"><stop offset=".211" stop-color="#a47f53"/><stop offset="1" stop-color="#c59635" stop-opacity="0"/></linearGradient><radialGradient id="h" cx="0" cy="0" r="1" gradientTransform="matrix(-1.75 1.56249 -6.34069 -7.10164 23.996 11.375)" gradientUnits="userSpaceOnUse"><stop offset="0" stop-color="#fcc071"/><stop offset="1" stop-color="#f9a53e" stop-opacity="0"/></radialGradient><radialGradient id="i" cx="0" cy="0" r="1" gradientTransform="matrix(-1.33379 1.18749 -5.26453 -5.91315 17.173 3.594)" gradientUnits="userSpaceOnUse"><stop offset="0" stop-color="#eba659"/><stop offset="1" stop-color="#f29e36" stop-opacity="0"/></radialGradient><linearGradient id="j" x1="20.746" x2="19.839" y1="22.875" y2="20.906" gradientUnits="userSpaceOnUse"><stop offset=".094" stop-color="#ec7e85"/><stop offset="1" stop-color="#f8a35f" stop-opacity="0"/></linearGradient><radialGradient id="k" cx="0" cy="0" r="1" gradientTransform="matrix(-7.49092 -.24313 .06822 -2.1019 13.886 23.578)" gradientUnits="userSpaceOnUse"><stop offset="0" stop-color="#f79f6d"/><stop offset="1" stop-color="#f79f6d" stop-opacity="0"/></radialGradient><linearGradient id="l" x1="6.152" x2="9.267" y1="24.152" y2="20.418" gradientUnits="userSpaceOnUse"><stop offset="0" stop-color="#a77850"/><stop offset="1" stop-color="#db8e2f" stop-opacity="0"/></linearGradient><radialGradient id="m" cx="0" cy="0" r="1" gradientTransform="matrix(-.07458 1.13523 -3.7425 -.24586 9.577 21.346)" gradientUnits="userSpaceOnUse"><stop offset="0" stop-color="#fcca73"/><stop offset="1" stop-color="#fbb950" stop-opacity="0"/></radialGradient><radialGradient id="n" cx="0" cy="0" r="1" gradientTransform="matrix(1.17114 4.44151 -15.56963 4.10542 11.168 19.888)" gradientUnits="userSpaceOnUse"><stop offset=".515" stop-color="#e26977" stop-opacity="0"/><stop offset=".94" stop-color="#f67698"/></radialGradient><g filter="url(#b)"><path fill="#fbba59" fill-rule="evenodd" d="m13.05 21.647 9.684-3.947 2.34 5.743a2.85 2.85 0 0 1-1.563 3.715l-4.406 1.796a2.85 2.85 0 0 1-3.715-1.564zm2.476 1.042 1.623 3.984a.95.95 0 0 0 1.239.521l4.406-1.795a.95.95 0 0 0 .521-1.239l-1.623-3.983z" clip-rule="evenodd"/></g><g filter="url(#c)"><path fill="url(#d)" d="m14.576 21.934-.094-.231-.233.094.095.232zm7.968-3.23.231-.094-.094-.23-.231.093zm-3.486 9.136-.094-.232zm-2.49-1.042.232-.095zm7.969-3.23-.232.095zm-1.048 2.476.093.232zm-8.82-3.878 7.969-3.23-.188-.463-7.968 3.23zm7.643-3.367 1.993 4.864.463-.19-1.993-4.863zm1.083 7.014-4.43 1.796.187.463 4.43-1.796zm-6.595.89-1.993-4.863-.463.19 1.993 4.863zm2.164.905a1.664 1.664 0 0 1-2.164-.905l-.463.19a2.164 2.164 0 0 0 2.815 1.179zm5.341-3.945a1.647 1.647 0 0 1-.91 2.15l.188.463a2.147 2.147 0 0 0 1.185-2.803z"/><path fill="url(#e)" d="m14.576 21.934-.094-.231-.233.094.095.232zm7.968-3.23.231-.094-.094-.23-.231.093zm-3.486 9.136-.094-.232zm-2.49-1.042.232-.095zm7.969-3.23-.232.095zm-1.048 2.476.093.232zm-8.82-3.878 7.969-3.23-.188-.463-7.968 3.23zm7.643-3.367 1.993 4.864.463-.19-1.993-4.863zm1.083 7.014-4.43 1.796.187.463 4.43-1.796zm-6.595.89-1.993-4.863-.463.19 1.993 4.863zm2.164.905a1.664 1.664 0 0 1-2.164-.905l-.463.19a2.164 2.164 0 0 0 2.815 1.179zm5.341-3.945a1.647 1.647 0 0 1-.91 2.15l.188.463a2.147 2.147 0 0 0 1.185-2.803z"/></g><path fill="url(#f)" d="M12.75 3.742c.793-1.81 3.16-2.252 4.553-.85L28.99 14.676c1.386 1.398.936 3.751-.868 4.538L9.277 27.438l-4.735-4.953z"/><path fill="url(#g)" d="M12.75 3.742c.793-1.81 3.16-2.252 4.553-.85L28.99 14.676c1.386 1.398.936 3.751-.868 4.538L9.277 27.438l-4.735-4.953z"/><path fill="url(#h)" d="M12.75 3.742c.793-1.81 3.16-2.252 4.553-.85L28.99 14.676c1.386 1.398.936 3.751-.868 4.538L9.277 27.438l-4.735-4.953z"/><path fill="url(#i)" d="M12.75 3.742c.793-1.81 3.16-2.252 4.553-.85L28.99 14.676c1.386 1.398.936 3.751-.868 4.538L9.277 27.438l-4.735-4.953z"/><path fill="url(#j)" d="M12.75 3.742c.793-1.81 3.16-2.252 4.553-.85L28.99 14.676c1.386 1.398.936 3.751-.868 4.538L9.277 27.438l-4.735-4.953z"/><g transform="rotate(45 3.699 20.484)"><rect width="10.927" height="3.315" x="3.699" y="20.484" fill="#faa72c" rx="1.657"/><rect width="10.927" height="3.315" x="3.699" y="20.484" fill="url(#k)" rx="1.657"/><rect width="10.927" height="3.315" x="3.699" y="20.484" fill="url(#l)" rx="1.657"/><rect width="10.927" height="3.315" x="3.699" y="20.484" fill="url(#m)" rx="1.657"/><rect width="10.927" height="3.315" x="3.699" y="20.484" fill="url(#n)" rx="1.657"/></g></svg>