<svg xmlns="http://www.w3.org/2000/svg" xmlns:xlink="http://www.w3.org/1999/xlink" width="32" height="32" fill="none"><filter id="b" width="22.322" height="28.314" x="4.939" y="1.743" color-interpolation-filters="sRGB" filterUnits="userSpaceOnUse"><feFlood flood-opacity="0" result="BackgroundImageFix"/><feBlend in="SourceGraphic" in2="BackgroundImageFix" result="shape"/><feColorMatrix in="SourceAlpha" result="hardAlpha" values="0 0 0 0 0 0 0 0 0 0 0 0 0 0 0 0 0 0 127 0"/><feOffset dx=".3" dy="-.3"/><feGaussianBlur stdDeviation=".3"/><feComposite in2="hardAlpha" k2="-1" k3="1" operator="arithmetic"/><feColorMatrix values="0 0 0 0 0.807843 0 0 0 0 0.768627 0 0 0 0 0.85098 0 0 0 1 0"/><feBlend in2="shape" result="effect1_innerShadow_18_21074"/><feColorMatrix in="SourceAlpha" result="hardAlpha" values="0 0 0 0 0 0 0 0 0 0 0 0 0 0 0 0 0 0 127 0"/><feOffset dx=".1" dy="-.1"/><feGaussianBlur stdDeviation=".1"/><feComposite in2="hardAlpha" k2="-1" k3="1" operator="arithmetic"/><feColorMatrix values="0 0 0 0 0.709804 0 0 0 0 0.690196 0 0 0 0 0.733333 0 0 0 1 0"/><feBlend in2="effect1_innerShadow_18_21074" result="effect2_innerShadow_18_21074"/><feColorMatrix in="SourceAlpha" result="hardAlpha" values="0 0 0 0 0 0 0 0 0 0 0 0 0 0 0 0 0 0 127 0"/><feOffset dy="-.1"/><feGaussianBlur stdDeviation=".1"/><feComposite in2="hardAlpha" k2="-1" k3="1" operator="arithmetic"/><feColorMatrix values="0 0 0 0 0.72549 0 0 0 0 0.65098 0 0 0 0 0.8 0 0 0 1 0"/><feBlend in2="effect2_innerShadow_18_21074" result="effect3_innerShadow_18_21074"/><feColorMatrix in="SourceAlpha" result="hardAlpha" values="0 0 0 0 0 0 0 0 0 0 0 0 0 0 0 0 0 0 127 0"/><feOffset dx="-.15" dy=".15"/><feGaussianBlur stdDeviation=".05"/><feComposite in2="hardAlpha" k2="-1" k3="1" operator="arithmetic"/><feColorMatrix values="0 0 0 0 0.952941 0 0 0 0 0.941176 0 0 0 0 0.964706 0 0 0 1 0"/><feBlend in2="effect3_innerShadow_18_21074" result="effect4_innerShadow_18_21074"/></filter><filter id="d" width="7.974" height="8.363" x="19.199" y="1.605" color-interpolation-filters="sRGB" filterUnits="userSpaceOnUse"><feFlood flood-opacity="0" result="BackgroundImageFix"/><feBlend in="SourceGraphic" in2="BackgroundImageFix" result="shape"/><feGaussianBlur result="effect1_foregroundBlur_18_21074" stdDeviation=".25"/></filter><filter id="e" width="7.29" height="7.414" x="19.771" y="1.945" color-interpolation-filters="sRGB" filterUnits="userSpaceOnUse"><feFlood flood-opacity="0" result="BackgroundImageFix"/><feBlend in="SourceGraphic" in2="BackgroundImageFix" result="shape"/><feColorMatrix in="SourceAlpha" result="hardAlpha" values="0 0 0 0 0 0 0 0 0 0 0 0 0 0 0 0 0 0 127 0"/><feOffset dx=".1"/><feGaussianBlur stdDeviation=".075"/><feComposite in2="hardAlpha" k2="-1" k3="1" operator="arithmetic"/><feColorMatrix values="0 0 0 0 0.631373 0 0 0 0 0.611765 0 0 0 0 0.654902 0 0 0 1 0"/><feBlend in2="shape" result="effect1_innerShadow_18_21074"/><feColorMatrix in="SourceAlpha" result="hardAlpha" values="0 0 0 0 0 0 0 0 0 0 0 0 0 0 0 0 0 0 127 0"/><feOffset dy="-.1"/><feGaussianBlur stdDeviation=".075"/><feComposite in2="hardAlpha" k2="-1" k3="1" operator="arithmetic"/><feColorMatrix values="0 0 0 0 0.752941 0 0 0 0 0.67451 0 0 0 0 0.835294 0 0 0 1 0"/><feBlend in2="effect1_innerShadow_18_21074" result="effect2_innerShadow_18_21074"/></filter><linearGradient id="c" x1="16" x2="16" y1="2.043" y2="29.957" gradientUnits="userSpaceOnUse"><stop offset="0" stop-color="#ebe4f3"/><stop offset="1" stop-color="#e4daf0"/></linearGradient><linearGradient id="f" x1="20.539" x2="23.18" y1="8.707" y2="6.066" gradientUnits="userSpaceOnUse"><stop offset="0" stop-color="#d9d3e1"/><stop offset="1" stop-color="#ccc7d1"/></linearGradient><linearGradient id="g" x1="23.773" x2="23.133" y1="5.551" y2="6.176" gradientUnits="userSpaceOnUse"><stop offset=".119" stop-color="#dbdadc"/><stop offset=".577" stop-color="#cbc7d0" stop-opacity="0"/></linearGradient><linearGradient id="a"><stop offset="0" stop-color="#9c96a2"/><stop offset="1" stop-color="#9a95a1"/></linearGradient><linearGradient xlink:href="#a" id="h" x1="9.039" x2="22.953" y1="12.492" y2="12.492" gradientUnits="userSpaceOnUse"/><linearGradient xlink:href="#a" id="i" x1="9.039" x2="22.953" y1="15.492" y2="15.492" gradientUnits="userSpaceOnUse"/><linearGradient xlink:href="#a" id="j" x1="9.039" x2="22.953" y1="18.492" y2="18.492" gradientUnits="userSpaceOnUse"/><linearGradient xlink:href="#a" id="k" x1="9.039" x2="18.023" y1="21.492" y2="21.492" gradientUnits="userSpaceOnUse"/><g filter="url(#b)"><path fill="url(#c)" d="M20.415 2.336a1 1 0 0 0-.707-.293H6.439a1.4 1.4 0 0 0-1.4 1.4v25.114a1.4 1.4 0 0 0 1.4 1.4h19.122a1.4 1.4 0 0 0 1.4-1.4V9.297a1 1 0 0 0-.293-.708z"/></g><g filter="url(#d)"><path fill="#d2c5df" d="M19.751 2.457c0-.201.058-.33-.052-.352.104.007.256.045.352.082.123.049-.03.156.067.25a.254.254 0 0 1 .009.008L26.38 8.7a1.009 1.009 0 0 1 .293.707v.063c0-.232-.168-.371-.293-.371h-5.429a1.2 1.2 0 0 1-1.2-1.2z"/></g><g filter="url(#e)"><path fill="url(#f)" d="M20.04 2.348c0-.202-.159-.281-.269-.303a1 1 0 0 1 .644.29l6.253 6.254a1.01 1.01 0 0 1 .244.4 1 1 0 0 1 .049.307v.063c0-.232-.168-.37-.293-.37h-5.429a1.2 1.2 0 0 1-1.2-1.2z"/></g><path fill="url(#g)" d="M20.04 2.348c0-.202-.159-.281-.269-.303a1 1 0 0 1 .644.29l6.253 6.254a1.01 1.01 0 0 1 .244.4 1 1 0 0 1 .049.307v.063c0-.232-.168-.37-.293-.37h-5.429a1.2 1.2 0 0 1-1.2-1.2z"/><rect width="13.914" height=".992" x="9.039" y="11.996" fill="url(#h)" rx=".496"/><rect width="13.914" height=".992" x="9.039" y="14.996" fill="url(#i)" rx=".496"/><rect width="13.914" height=".992" x="9.039" y="17.996" fill="url(#j)" rx=".496"/><rect width="8.984" height=".992" x="9.039" y="20.996" fill="url(#k)" rx=".496"/></svg>