<svg xmlns="http://www.w3.org/2000/svg" xmlns:xlink="http://www.w3.org/1999/xlink" width="32" height="32" fill="none"><filter id="b" width="21.725" height="28.865" x="5.935" y="1.041" color-interpolation-filters="sRGB" filterUnits="userSpaceOnUse"><feFlood flood-opacity="0" result="BackgroundImageFix"/><feBlend in="SourceGraphic" in2="BackgroundImageFix" result="shape"/><feColorMatrix in="SourceAlpha" result="hardAlpha" values="0 0 0 0 0 0 0 0 0 0 0 0 0 0 0 0 0 0 127 0"/><feOffset dx=".5" dy="-1"/><feGaussianBlur stdDeviation="1"/><feComposite in2="hardAlpha" k2="-1" k3="1" operator="arithmetic"/><feColorMatrix values="0 0 0 0 0.976471 0 0 0 0 0.501961 0 0 0 0 0.443137 0 0 0 1 0"/><feBlend in2="shape" result="effect1_innerShadow_20020_2056"/></filter><filter id="d" width="8.711" height="8.678" x="6.101" y="10.805" color-interpolation-filters="sRGB" filterUnits="userSpaceOnUse"><feFlood flood-opacity="0" result="BackgroundImageFix"/><feBlend in="SourceGraphic" in2="BackgroundImageFix" result="shape"/><feGaussianBlur result="effect1_foregroundBlur_20020_2056" stdDeviation=".5"/></filter><filter id="l" width="10.68" height="9.724" x="13.981" y="16.166" color-interpolation-filters="sRGB" filterUnits="userSpaceOnUse"><feFlood flood-opacity="0" result="BackgroundImageFix"/><feBlend in="SourceGraphic" in2="BackgroundImageFix" result="shape"/><feGaussianBlur result="effect1_foregroundBlur_20020_2056" stdDeviation=".5"/></filter><filter id="w" width="6.362" height="14.817" x="14.825" y=".909" color-interpolation-filters="sRGB" filterUnits="userSpaceOnUse"><feFlood flood-opacity="0" result="BackgroundImageFix"/><feBlend in="SourceGraphic" in2="BackgroundImageFix" result="shape"/><feGaussianBlur result="effect1_foregroundBlur_20020_2056" stdDeviation="1"/></filter><filter id="x" width="7.975" height="13.121" x="20.379" y="4.239" color-interpolation-filters="sRGB" filterUnits="userSpaceOnUse"><feFlood flood-opacity="0" result="BackgroundImageFix"/><feBlend in="SourceGraphic" in2="BackgroundImageFix" result="shape"/><feGaussianBlur result="effect1_foregroundBlur_20020_2056" stdDeviation="1"/></filter><filter id="y" width="9.146" height="7.828" x="16.618" y="15.063" color-interpolation-filters="sRGB" filterUnits="userSpaceOnUse"><feFlood flood-opacity="0" result="BackgroundImageFix"/><feBlend in="SourceGraphic" in2="BackgroundImageFix" result="shape"/><feGaussianBlur result="effect1_foregroundBlur_20020_2056" stdDeviation=".75"/></filter><radialGradient id="c" cx="0" cy="0" r="1" gradientTransform="matrix(6.46875 0 0 17.6975 6.435 20.688)" gradientUnits="userSpaceOnUse"><stop offset="0" stop-color="#ffbf36"/><stop offset="1" stop-color="#ffc736" stop-opacity="0"/></radialGradient><radialGradient id="e" cx="0" cy="0" r="1" gradientTransform="matrix(-2.40393 0 0 -8.45019 9.292 14.555)" gradientUnits="userSpaceOnUse"><stop offset="0" stop-color="#ffd237"/><stop offset="1" stop-color="#ffba32"/></radialGradient><radialGradient id="f" cx="0" cy="0" r="1" gradientTransform="matrix(-2.79221 -5.27135 8.68566 -4.60076 9.593 15.842)" gradientUnits="userSpaceOnUse"><stop offset=".664" stop-color="#f2af43" stop-opacity="0"/><stop offset=".967" stop-color="#f2af43"/></radialGradient><radialGradient id="g" cx="0" cy="0" r="1" gradientTransform="matrix(0 7.59375 -6.05121 0 8.486 10.781)" gradientUnits="userSpaceOnUse"><stop offset=".774" stop-color="#f58e33" stop-opacity="0"/><stop offset="1" stop-color="#f58e33"/></radialGradient><linearGradient id="h" x1="10.854" x2="9.507" y1="14.316" y2="14.316" gradientUnits="userSpaceOnUse"><stop offset="0" stop-color="#c3832a"/><stop offset="1" stop-color="#c3832a" stop-opacity="0"/></linearGradient><radialGradient id="i" cx="0" cy="0" r="1" gradientTransform="matrix(-4.39249 0 0 -12.4392 14.967 13.29)" gradientUnits="userSpaceOnUse"><stop offset="0" stop-color="#ffe73f"/><stop offset="1" stop-color="#eda220"/></radialGradient><radialGradient id="j" cx="0" cy="0" r="1" gradientTransform="matrix(-2.84173 -5.11502 5.0506 -2.80594 13.807 14.894)" gradientUnits="userSpaceOnUse"><stop offset=".69" stop-color="#de9e44" stop-opacity="0"/><stop offset="1" stop-color="#de9e44"/></radialGradient><radialGradient id="k" cx="0" cy="0" r="1" gradientTransform="matrix(-2.17783 8.6004 -6.2624 -1.5858 14.082 9.93)" gradientUnits="userSpaceOnUse"><stop offset=".733" stop-color="#e9823b" stop-opacity="0"/><stop offset="1" stop-color="#e9823b"/></radialGradient><radialGradient id="m" cx="0" cy="0" r="1" gradientTransform="matrix(5.13233 -6.0845 6.49404 5.47778 18.51 24.523)" gradientUnits="userSpaceOnUse"><stop offset=".602" stop-color="#ffe444" stop-opacity="0"/><stop offset="1" stop-color="#ffe444"/></radialGradient><radialGradient id="n" cx="0" cy="0" r="1" gradientTransform="matrix(1.41565 -3.58984 5.09216 2.0081 18.963 22.585)" gradientUnits="userSpaceOnUse"><stop offset=".414" stop-color="#f5863b"/><stop offset="1" stop-color="#f5863b" stop-opacity="0"/></radialGradient><radialGradient id="o" cx="0" cy="0" r="1" gradientTransform="matrix(3.02303 1.65321 -2.7655 5.05693 16.035 17.153)" gradientUnits="userSpaceOnUse"><stop offset="0" stop-color="#eeae11"/><stop offset="1" stop-color="#eeae11" stop-opacity="0"/></radialGradient><radialGradient id="p" cx="0" cy="0" r="1" gradientTransform="matrix(23.58865 .10771 -.13271 29.0642 1.257 19.493)" gradientUnits="userSpaceOnUse"><stop offset=".867" stop-color="#ffc53b" stop-opacity="0"/><stop offset="1" stop-color="#ffc53b"/></radialGradient><radialGradient id="q" cx="0" cy="0" r="1" gradientTransform="matrix(-4.55653 4.50733 -4.94959 -5.00361 22.284 15.974)" gradientUnits="userSpaceOnUse"><stop offset="0" stop-color="#ffd131"/><stop offset="1" stop-color="#ffd131" stop-opacity="0"/></radialGradient><radialGradient id="r" cx="0" cy="0" r="1" gradientTransform="matrix(-.4375 3.8125 -.62699 -.07195 20.107 10.156)" gradientUnits="userSpaceOnUse"><stop offset=".499" stop-color="#cd9028"/><stop offset="1" stop-color="#cd9028" stop-opacity="0"/></radialGradient><linearGradient id="a"><stop offset="0" stop-color="#ffe847"/><stop offset="1" stop-color="#ffe847" stop-opacity="0"/></linearGradient><radialGradient xlink:href="#a" id="s" cx="0" cy="0" r="1" gradientTransform="matrix(-1.29254 2.31576 -2.63568 -1.4711 18.68 2.69)" gradientUnits="userSpaceOnUse"/><radialGradient id="t" cx="0" cy="0" r="1" gradientTransform="matrix(1.1875 .375 -2.39876 7.59612 21.685 7.344)" gradientUnits="userSpaceOnUse"><stop offset="0" stop-color="#d19532"/><stop offset="1" stop-color="#d19532" stop-opacity="0"/></radialGradient><radialGradient id="u" cx="0" cy="0" r="1" gradientTransform="matrix(.52265 1.28652 -1.98532 .80654 23.523 4.528)" gradientUnits="userSpaceOnUse"><stop offset="0" stop-color="#d3ae52"/><stop offset="1" stop-color="#d3ae52" stop-opacity="0"/></radialGradient><radialGradient xlink:href="#a" id="v" cx="0" cy="0" r="1" gradientTransform="matrix(-1.93877 2.10037 -2.3844 -2.20096 26.57 5.302)" gradientUnits="userSpaceOnUse"/><linearGradient id="z" x1="18.899" x2="24.045" y1="17.063" y2="20.408" gradientUnits="userSpaceOnUse"><stop offset="0" stop-color="#ffe746"/><stop offset="1" stop-color="#ffe746" stop-opacity="0"/></linearGradient><g filter="url(#b)"><path fill="#fb4" d="m14.76 16.055-8.825-.634s0 3.596.371 6.61c.782 5.157 4.583 7.875 8.703 7.875 7.688 0 10.502-5.906 10.127-9.955-.376-4.05-.485-4.834 0-6.193l1.848-5.678c.313-.844.42-2.778-1.58-3.453s-3.052.984-3.338 1.765l-1.903 5.667c-.18.289-.398.086-.398-.055-.094-1.73-.287-5.658-.487-7.658-.189-1.887-1.943-2.37-2.777-2.298-1.725.125-2.46 1.781-2.381 2.531z"/><path fill="url(#c)" d="m14.76 16.055-8.825-.634s0 3.596.371 6.61c.782 5.157 4.583 7.875 8.703 7.875 7.688 0 10.502-5.906 10.127-9.955-.376-4.05-.485-4.834 0-6.193l1.848-5.678c.313-.844.42-2.778-1.58-3.453s-3.052.984-3.338 1.765l-1.903 5.667c-.18.289-.398.086-.398-.055-.094-1.73-.287-5.658-.487-7.658-.189-1.887-1.943-2.37-2.777-2.298-1.725.125-2.46 1.781-2.381 2.531z"/></g><g fill="#cd6322" filter="url(#d)"><path d="M9.65 14.25c0-1.831.932-2.445 2.081-2.445 1.15 0 2.081.878 2.081 2.444v1.964c0 1.35-.932 2.27-2.08 2.27-1.15 0-2.082-.92-2.082-2.27z"/><path d="M7.101 14.175c0-1.775.904-2.37 2.018-2.37 1.115 0 2.018.852 2.018 2.37v1.905c0 1.309-.903 2.201-2.018 2.201-1.114 0-2.018-.892-2.018-2.201z"/></g><path fill="url(#e)" d="M5.931 13.368c0-1.85 1.204-2.798 2.688-2.798 1.484 0 2.422 1.253 2.422 2.798v2.248c0 1.545-.938 2.446-2.422 2.446-1.484 0-2.688-.9-2.688-2.446z"/><path fill="url(#f)" d="M5.931 13.368c0-1.85 1.204-2.798 2.688-2.798 1.484 0 2.422 1.253 2.422 2.798v2.248c0 1.545-.938 2.446-2.422 2.446-1.484 0-2.688-.9-2.688-2.446z"/><path fill="url(#g)" d="M5.931 13.368c0-1.85 1.204-2.798 2.688-2.798 1.484 0 2.422 1.253 2.422 2.798v2.248c0 1.545-.938 2.446-2.422 2.446-1.484 0-2.688-.9-2.688-2.446z"/><path fill="url(#h)" d="M5.931 13.368c0-1.85 1.204-2.798 2.688-2.798 1.484 0 2.422 1.253 2.422 2.798v2.248c0 1.545-.938 2.446-2.422 2.446-1.484 0-2.688-.9-2.688-2.446z"/><path fill="url(#i)" d="M10.008 12.69c0-2.377 1.21-3.174 2.701-3.174 1.493 0 2.702 1.14 2.702 3.174v2.55c0 1.753-1.21 2.948-2.702 2.948s-2.701-1.195-2.701-2.948z"/><path fill="url(#j)" d="M10.008 12.69c0-2.377 1.21-3.174 2.701-3.174 1.493 0 2.702 1.14 2.702 3.174v2.55c0 1.753-1.21 2.948-2.702 2.948s-2.701-1.195-2.701-2.948z"/><path fill="url(#k)" d="M10.008 12.69c0-2.377 1.21-3.174 2.701-3.174 1.493 0 2.702 1.14 2.702 3.174v2.55c0 1.753-1.21 2.948-2.702 2.948s-2.701-1.195-2.701-2.948z"/><g filter="url(#l)"><path fill="#eb872f" d="M17.197 21.873c1.889 0 4.045-.044 4.526 2.093.45 1.999 2.324.5 1.866-2.093-.579-3.274-3.138-4.836-6.392-4.699-1.726.073-2.216 1.513-2.216 2.234 0 .72.328 2.465 2.216 2.465z"/></g><path fill="#fb4" d="M18.088 20.828c2.05 0 3.163 1.684 3.686 4 .488 2.168 3.749-1.187 3.251-4-.628-3.549-3.405-5.243-6.937-5.094-1.874.08-2.407 1.641-2.407 2.422 0 .781.357 2.672 2.407 2.672z"/><path fill="url(#m)" d="M18.088 20.828c2.05 0 3.163 1.684 3.686 4 .488 2.168 3.749-1.187 3.251-4-.628-3.549-3.405-5.243-6.937-5.094-1.874.08-2.407 1.641-2.407 2.422 0 .781.357 2.672 2.407 2.672z"/><path fill="url(#n)" d="M18.088 20.828c2.05 0 3.163 1.684 3.686 4 .488 2.168 3.749-1.187 3.251-4-.628-3.549-3.405-5.243-6.937-5.094-1.874.08-2.407 1.641-2.407 2.422 0 .781.357 2.672 2.407 2.672z"/><path fill="url(#o)" d="M18.088 20.828c2.05 0 3.163 1.684 3.686 4 .488 2.168 3.749-1.187 3.251-4-.628-3.549-3.405-5.243-6.937-5.094-1.874.08-2.407 1.641-2.407 2.422 0 .781.357 2.672 2.407 2.672z"/><path fill="url(#p)" d="m14.76 16.055-8.825-.634s0 3.596.371 6.61c.782 5.157 4.583 7.875 8.703 7.875 7.688 0 10.502-5.906 10.127-9.955-.376-4.05-.485-4.834 0-6.193l1.848-5.678c.313-.844.42-2.778-1.58-3.453s-3.052.984-3.338 1.765l-1.903 5.667c-.18.289-.398.086-.398-.055-.094-1.73-.287-5.658-.487-7.658-.189-1.887-1.943-2.37-2.777-2.298-1.725.125-2.46 1.781-2.381 2.531z"/><path fill="url(#q)" d="m14.76 16.055-8.825-.634s0 3.596.371 6.61c.782 5.157 4.583 7.875 8.703 7.875 7.688 0 10.502-5.906 10.127-9.955-.376-4.05-.485-4.834 0-6.193l1.848-5.678c.313-.844.42-2.778-1.58-3.453s-3.052.984-3.338 1.765l-1.903 5.667c-.18.289-.398.086-.398-.055-.094-1.73-.287-5.658-.487-7.658-.189-1.887-1.943-2.37-2.777-2.298-1.725.125-2.46 1.781-2.381 2.531z"/><path fill="url(#r)" d="m14.76 16.055-8.825-.634s0 3.596.371 6.61c.782 5.157 4.583 7.875 8.703 7.875 7.688 0 10.502-5.906 10.127-9.955-.376-4.05-.485-4.834 0-6.193l1.848-5.678c.313-.844.42-2.778-1.58-3.453s-3.052.984-3.338 1.765l-1.903 5.667c-.18.289-.398.086-.398-.055-.094-1.73-.287-5.658-.487-7.658-.189-1.887-1.943-2.37-2.777-2.298-1.725.125-2.46 1.781-2.381 2.531z"/><path fill="url(#s)" d="m14.76 16.055-8.825-.634s0 3.596.371 6.61c.782 5.157 4.583 7.875 8.703 7.875 7.688 0 10.502-5.906 10.127-9.955-.376-4.05-.485-4.834 0-6.193l1.848-5.678c.313-.844.42-2.778-1.58-3.453s-3.052.984-3.338 1.765l-1.903 5.667c-.18.289-.398.086-.398-.055-.094-1.73-.287-5.658-.487-7.658-.189-1.887-1.943-2.37-2.777-2.298-1.725.125-2.46 1.781-2.381 2.531z"/><path fill="url(#t)" d="m14.76 16.055-8.825-.634s0 3.596.371 6.61c.782 5.157 4.583 7.875 8.703 7.875 7.688 0 10.502-5.906 10.127-9.955-.376-4.05-.485-4.834 0-6.193l1.848-5.678c.313-.844.42-2.778-1.58-3.453s-3.052.984-3.338 1.765l-1.903 5.667c-.18.289-.398.086-.398-.055-.094-1.73-.287-5.658-.487-7.658-.189-1.887-1.943-2.37-2.777-2.298-1.725.125-2.46 1.781-2.381 2.531z"/><path fill="url(#u)" d="m14.76 16.055-8.825-.634s0 3.596.371 6.61c.782 5.157 4.583 7.875 8.703 7.875 7.688 0 10.502-5.906 10.127-9.955-.376-4.05-.485-4.834 0-6.193l1.848-5.678c.313-.844.42-2.778-1.58-3.453s-3.052.984-3.338 1.765l-1.903 5.667c-.18.289-.398.086-.398-.055-.094-1.73-.287-5.658-.487-7.658-.189-1.887-1.943-2.37-2.777-2.298-1.725.125-2.46 1.781-2.381 2.531z"/><path fill="url(#v)" d="m14.76 16.055-8.825-.634s0 3.596.371 6.61c.782 5.157 4.583 7.875 8.703 7.875 7.688 0 10.502-5.906 10.127-9.955-.376-4.05-.485-4.834 0-6.193l1.848-5.678c.313-.844.42-2.778-1.58-3.453s-3.052.984-3.338 1.765l-1.903 5.667c-.18.289-.398.086-.398-.055-.094-1.73-.287-5.658-.487-7.658-.189-1.887-1.943-2.37-2.777-2.298-1.725.125-2.46 1.781-2.381 2.531z"/><g filter="url(#w)"><path stroke="#ffe746" stroke-linecap="round" stroke-width="1.5" d="m17.575 3.66.862 9.316"/></g><g filter="url(#x)"><path stroke="#ffe746" stroke-linecap="round" d="m25.854 6.74-2.975 8.12"/></g><g filter="url(#y)"><path stroke="url(#z)" stroke-linecap="round" d="M18.618 17.071c1.367-.093 4.31.54 5.146 3.82"/></g></svg>