<svg xmlns="http://www.w3.org/2000/svg" width="32" height="32" fill="none"><filter id="h" width="22.396" height="22.659" x="6.095" y="3.04" color-interpolation-filters="sRGB" filterUnits="userSpaceOnUse"><feFlood flood-opacity="0" result="BackgroundImageFix"/><feBlend in="SourceGraphic" in2="BackgroundImageFix" result="shape"/><feColorMatrix in="SourceAlpha" result="hardAlpha" values="0 0 0 0 0 0 0 0 0 0 0 0 0 0 0 0 0 0 127 0"/><feOffset dx="-.25" dy="-.5"/><feGaussianBlur stdDeviation=".75"/><feComposite in2="hardAlpha" k2="-1" k3="1" operator="arithmetic"/><feColorMatrix values="0 0 0 0 0.745098 0 0 0 0 0.772549 0 0 0 0 0.952941 0 0 0 1 0"/><feBlend in2="shape" result="effect1_innerShadow_18_13076"/></filter><filter id="n" width="8.719" height="8.719" x="16.781" y="6.953" color-interpolation-filters="sRGB" filterUnits="userSpaceOnUse"><feFlood flood-opacity="0" result="BackgroundImageFix"/><feColorMatrix in="SourceAlpha" result="hardAlpha" values="0 0 0 0 0 0 0 0 0 0 0 0 0 0 0 0 0 0 127 0"/><feOffset dy=".25"/><feGaussianBlur stdDeviation=".5"/><feComposite in2="hardAlpha" operator="out"/><feColorMatrix values="0 0 0 0 0.866667 0 0 0 0 0.764706 0 0 0 0 0.847059 0 0 0 1 0"/><feBlend in2="BackgroundImageFix" result="effect1_dropShadow_18_13076"/><feBlend in="SourceGraphic" in2="effect1_dropShadow_18_13076" result="shape"/><feColorMatrix in="SourceAlpha" result="hardAlpha" values="0 0 0 0 0 0 0 0 0 0 0 0 0 0 0 0 0 0 127 0"/><feOffset dx="-.1" dy=".1"/><feGaussianBlur stdDeviation=".05"/><feComposite in2="hardAlpha" k2="-1" k3="1" operator="arithmetic"/><feColorMatrix values="0 0 0 0 0.721569 0 0 0 0 0.690196 0 0 0 0 0.701961 0 0 0 1 0"/><feBlend in2="shape" result="effect2_innerShadow_18_13076"/><feColorMatrix in="SourceAlpha" result="hardAlpha" values="0 0 0 0 0 0 0 0 0 0 0 0 0 0 0 0 0 0 127 0"/><feOffset dx=".1" dy="-.1"/><feGaussianBlur stdDeviation=".05"/><feComposite in2="hardAlpha" k2="-1" k3="1" operator="arithmetic"/><feColorMatrix values="0 0 0 0 0.615686 0 0 0 0 0.560784 0 0 0 0 0.65098 0 0 0 1 0"/><feBlend in2="effect2_innerShadow_18_13076" result="effect3_innerShadow_18_13076"/></filter><filter id="r" width="7.574" height="7.217" x="2.088" y="22.413" color-interpolation-filters="sRGB" filterUnits="userSpaceOnUse"><feFlood flood-opacity="0" result="BackgroundImageFix"/><feBlend in="SourceGraphic" in2="BackgroundImageFix" result="shape"/><feColorMatrix in="SourceAlpha" result="hardAlpha" values="0 0 0 0 0 0 0 0 0 0 0 0 0 0 0 0 0 0 127 0"/><feOffset dy="-.2"/><feGaussianBlur stdDeviation=".2"/><feComposite in2="hardAlpha" k2="-1" k3="1" operator="arithmetic"/><feColorMatrix values="0 0 0 0 0.847059 0 0 0 0 0.505882 0 0 0 0 0.360784 0 0 0 1 0"/><feBlend in2="shape" result="effect1_innerShadow_18_13076"/></filter><filter id="E" width="7.625" height="8.438" x="8.205" y="16.64" color-interpolation-filters="sRGB" filterUnits="userSpaceOnUse"><feFlood flood-opacity="0" result="BackgroundImageFix"/><feBlend in="SourceGraphic" in2="BackgroundImageFix" result="shape"/><feGaussianBlur result="effect1_foregroundBlur_18_13076" stdDeviation=".5"/></filter><linearGradient id="b" x1="8.111" x2="3.111" y1="17.308" y2="16.484" gradientUnits="userSpaceOnUse"><stop offset="0" stop-color="#ee2452"/><stop offset="1" stop-color="#f63e7a"/></linearGradient><radialGradient id="c" cx="0" cy="0" r="1" gradientTransform="matrix(7.52114 -2.73117 .46436 1.27875 2.398 17.063)" gradientUnits="userSpaceOnUse"><stop offset=".164" stop-color="#ff8db0"/><stop offset="1" stop-color="#ff8db0" stop-opacity="0"/></radialGradient><linearGradient id="d" x1="4.905" x2="5.72" y1="19.733" y2="18.938" gradientUnits="userSpaceOnUse"><stop offset=".491" stop-color="#dd467c"/><stop offset="1" stop-color="#dd467c" stop-opacity="0"/></linearGradient><linearGradient id="e" x1="17.892" x2="11.674" y1="21.672" y2="26.551" gradientUnits="userSpaceOnUse"><stop offset="0" stop-color="#f83267"/><stop offset="1" stop-color="#ff3190"/></linearGradient><radialGradient id="f" cx="0" cy="0" r="1" gradientTransform="matrix(.46875 7.62467 -6.57365 .40413 14.58 22.203)" gradientUnits="userSpaceOnUse"><stop offset=".757" stop-color="#e76cbe" stop-opacity="0"/><stop offset=".951" stop-color="#e76cbe"/></radialGradient><radialGradient id="g" cx="0" cy="0" r="1" gradientTransform="matrix(2.84375 -4.4375 1.94917 1.24912 13.455 26.234)" gradientUnits="userSpaceOnUse"><stop offset="0" stop-color="#ff5898"/><stop offset="1" stop-color="#ff5898" stop-opacity="0"/></radialGradient><linearGradient id="i" x1="13.486" x2="22.298" y1="8.672" y2="17.547" gradientUnits="userSpaceOnUse"><stop offset="0" stop-color="#ccbbc0"/><stop offset="1" stop-color="#ead2ec"/></linearGradient><radialGradient id="j" cx="0" cy="0" r="1" gradientTransform="matrix(-13.22128 -10.16449 19.10663 -24.85262 23.97 21.577)" gradientUnits="userSpaceOnUse"><stop offset=".811" stop-color="#e7e5e5" stop-opacity="0"/><stop offset="1" stop-color="#e7e5e5"/></radialGradient><radialGradient id="k" cx="0" cy="0" r="1" gradientTransform="matrix(5.34968 -8.21557 3.86124 2.5143 9.181 21.31)" gradientUnits="userSpaceOnUse"><stop offset=".281" stop-color="#b5a3a5"/><stop offset="1" stop-color="#b5a3a5" stop-opacity="0"/></radialGradient><radialGradient id="l" cx="0" cy="0" r="1" gradientTransform="matrix(2.45025 -8.33865 1.41296 .41519 6.345 20.091)" gradientUnits="userSpaceOnUse"><stop offset=".208" stop-color="#b28f96"/><stop offset="1" stop-color="#b28f96" stop-opacity="0"/></radialGradient><radialGradient id="m" cx="0" cy="0" r="1" gradientTransform="matrix(-9.68 8.93746 -2.77498 -3.00553 27.11 7.11)" gradientUnits="userSpaceOnUse"><stop offset="0" stop-color="#faecf1"/><stop offset="1" stop-color="#faecf1" stop-opacity="0"/></radialGradient><linearGradient id="o" x1="17.781" x2="24.5" y1="10.491" y2="11.062" gradientUnits="userSpaceOnUse"><stop offset="0" stop-color="#a796a0"/><stop offset="1" stop-color="#a5959f"/></linearGradient><radialGradient id="p" cx="0" cy="0" r="1" gradientTransform="rotate(90 5.04 16.102) scale(3.35938)" gradientUnits="userSpaceOnUse"><stop offset=".587" stop-color="#93859b"/><stop offset="1" stop-color="#93859b" stop-opacity="0"/></radialGradient><radialGradient id="q" cx="0" cy="0" r="1" gradientTransform="matrix(0 -4.84559 4.45626 0 21.14 13.388)" gradientUnits="userSpaceOnUse"><stop offset="0" stop-color="#72cdff"/><stop offset=".738" stop-color="#66acff"/><stop offset="1" stop-color="#3b57f4"/></radialGradient><radialGradient id="s" cx="0" cy="0" r="1" gradientTransform="rotate(135 -.926 13.82) scale(5.80645 4.56401)" gradientUnits="userSpaceOnUse"><stop offset="0" stop-color="#d46213"/><stop offset="1" stop-color="#ff9542"/></radialGradient><radialGradient id="t" cx="0" cy="0" r="1" gradientTransform="matrix(-4.72447 -5.39938 5.69005 -4.9788 8.304 28.97)" gradientUnits="userSpaceOnUse"><stop offset=".871" stop-color="#ffc484" stop-opacity="0"/><stop offset="1" stop-color="#ffc484"/></radialGradient><linearGradient id="u" x1="5.798" x2="11.298" y1="21.953" y2="27.359" gradientUnits="userSpaceOnUse"><stop offset="0" stop-color="#452860"/><stop offset="1" stop-color="#51509f"/></linearGradient><radialGradient id="v" cx="0" cy="0" r="1" gradientTransform="matrix(.34375 1.59375 -1.40812 .30371 6.83 21.453)" gradientUnits="userSpaceOnUse"><stop offset="0" stop-color="#8e839a"/><stop offset="1" stop-color="#8e839a" stop-opacity="0"/></radialGradient><radialGradient id="w" cx="0" cy="0" r="1" gradientTransform="matrix(4.16202 4.61197 -2.4175 2.18165 7.207 22.418)" gradientUnits="userSpaceOnUse"><stop offset=".86" stop-color="#6175b9" stop-opacity="0"/><stop offset="1" stop-color="#6175b9"/></radialGradient><linearGradient id="x" x1="29.177" x2="25.501" y1="2.876" y2="6.552" gradientUnits="userSpaceOnUse"><stop offset="0" stop-color="#ff3745"/><stop offset="1" stop-color="#ed224b"/></linearGradient><radialGradient id="y" cx="0" cy="0" r="1" gradientTransform="rotate(135 13.469 8.126) scale(8.24677 1.9797)" gradientUnits="userSpaceOnUse"><stop offset=".189" stop-color="#ff5971"/><stop offset="1" stop-color="#ff5971" stop-opacity="0"/></radialGradient><linearGradient id="z" x1="25.822" x2="26.189" y1="6.797" y2="6.414" gradientUnits="userSpaceOnUse"><stop offset="0" stop-color="#d2575e"/><stop offset="1" stop-color="#f93251" stop-opacity="0"/></linearGradient><linearGradient id="A" x1="15.16" x2="8.674" y1="17.065" y2="23.551" gradientUnits="userSpaceOnUse"><stop offset="0" stop-color="#ff2644"/><stop offset="1" stop-color="#ff2982"/></linearGradient><radialGradient id="B" cx="0" cy="0" r="1" gradientTransform="matrix(6.96875 -2.65624 .69538 1.82436 6.236 19.422)" gradientUnits="userSpaceOnUse"><stop offset="0" stop-color="#ff95af"/><stop offset="1" stop-color="#ff95af" stop-opacity="0"/></radialGradient><radialGradient id="C" cx="0" cy="0" r="1" gradientTransform="matrix(3.27669 3.24305 -.95797 .9679 5.398 20.308)" gradientUnits="userSpaceOnUse"><stop offset=".382" stop-color="#e14678"/><stop offset="1" stop-color="#e14678" stop-opacity="0"/></radialGradient><radialGradient id="D" cx="0" cy="0" r="1" gradientTransform="matrix(.6875 7.375 -7.85914 .73263 11.58 19.14)" gradientUnits="userSpaceOnUse"><stop offset=".832" stop-color="#e67bc7" stop-opacity="0"/><stop offset="1" stop-color="#e67bc7"/></radialGradient><linearGradient id="F" x1="13.986" x2="9.861" y1="18.109" y2="22.422" gradientUnits="userSpaceOnUse"><stop offset="0" stop-color="#ff5970"/><stop offset="1" stop-color="#ff5794"/></linearGradient><clipPath id="a"><path d="M0 0h32v32H0z"/></clipPath><g clip-path="url(#a)"><path fill="url(#b)" d="M10.582 13.718c1.2-.442 2.367.725 1.925 1.926L9.89 22.758a1 1 0 0 1-1.646.362l-5.138-5.138a1 1 0 0 1 .362-1.645z"/><path fill="url(#c)" d="M10.582 13.718c1.2-.442 2.367.725 1.925 1.926L9.89 22.758a1 1 0 0 1-1.646.362l-5.138-5.138a1 1 0 0 1 .362-1.645z"/><path fill="url(#d)" d="M10.582 13.718c1.2-.442 2.367.725 1.925 1.926L9.89 22.758a1 1 0 0 1-1.646.362l-5.138-5.138a1 1 0 0 1 .362-1.645z"/><path fill="url(#e)" d="M16.581 19.718c1.201-.442 2.368.725 1.926 1.926l-2.619 7.114a1 1 0 0 1-1.645.362l-5.138-5.138a1 1 0 0 1 .362-1.645z"/><path fill="url(#f)" d="M16.581 19.718c1.201-.442 2.368.725 1.926 1.926l-2.619 7.114a1 1 0 0 1-1.645.362l-5.138-5.138a1 1 0 0 1 .362-1.645z"/><path fill="url(#g)" d="M16.581 19.718c1.201-.442 2.368.725 1.926 1.926l-2.619 7.114a1 1 0 0 1-1.645.362l-5.138-5.138a1 1 0 0 1 .362-1.645z"/><g filter="url(#h)"><path fill="url(#i)" d="M22.4 3.55a.15.15 0 0 1 .162.034l5.885 5.93a.15.15 0 0 1 .033.162c-1.41 3.46-3.353 7.14-5.955 9.742-2.533 2.534-6.819 4.693-10.689 6.281l-5.491-5.492c1.588-3.87 3.747-8.155 6.281-10.689 2.61-2.61 6.304-4.557 9.773-5.967z"/><path fill="url(#j)" d="M22.4 3.55a.15.15 0 0 1 .162.034l5.885 5.93a.15.15 0 0 1 .033.162c-1.41 3.46-3.353 7.14-5.955 9.742-2.533 2.534-6.819 4.693-10.689 6.281l-5.491-5.492c1.588-3.87 3.747-8.155 6.281-10.689 2.61-2.61 6.304-4.557 9.773-5.967z"/><path fill="url(#k)" d="M22.4 3.55a.15.15 0 0 1 .162.034l5.885 5.93a.15.15 0 0 1 .033.162c-1.41 3.46-3.353 7.14-5.955 9.742-2.533 2.534-6.819 4.693-10.689 6.281l-5.491-5.492c1.588-3.87 3.747-8.155 6.281-10.689 2.61-2.61 6.304-4.557 9.773-5.967z"/><path fill="url(#l)" d="M22.4 3.55a.15.15 0 0 1 .162.034l5.885 5.93a.15.15 0 0 1 .033.162c-1.41 3.46-3.353 7.14-5.955 9.742-2.533 2.534-6.819 4.693-10.689 6.281l-5.491-5.492c1.588-3.87 3.747-8.155 6.281-10.689 2.61-2.61 6.304-4.557 9.773-5.967z"/><path fill="url(#m)" d="M22.4 3.55a.15.15 0 0 1 .162.034l5.885 5.93a.15.15 0 0 1 .033.162c-1.41 3.46-3.353 7.14-5.955 9.742-2.533 2.534-6.819 4.693-10.689 6.281l-5.491-5.492c1.588-3.87 3.747-8.155 6.281-10.689 2.61-2.61 6.304-4.557 9.773-5.967z"/></g><g filter="url(#n)"><path fill="url(#o)" d="M24.5 11.062a3.36 3.36 0 1 1-6.719 0 3.36 3.36 0 0 1 6.719 0z"/><path fill="url(#p)" d="M24.5 11.062a3.36 3.36 0 1 1-6.719 0 3.36 3.36 0 0 1 6.719 0z"/></g><path fill="url(#q)" d="M23.466 11.062a2.326 2.326 0 1 1-4.651 0 2.326 2.326 0 0 1 4.651 0z"/><g filter="url(#r)"><path fill="url(#s)" d="M2.423 29.533C1.716 28.825 2 23.922 4.5 22.922c0 0 2.5-1 4.111.6 1.611 1.6.889 3.4.889 3.4-.707 2.121-3.717 2.964-4.071 2.61-.195-.195.156-.55 0-.706-.156-.157-.398.022-1.06.353-.472.236-1.663.636-1.946.354z"/><path fill="url(#t)" d="M2.423 29.533C1.716 28.825 2 23.922 4.5 22.922c0 0 2.5-1 4.111.6 1.611 1.6.889 3.4.889 3.4-.707 2.121-3.717 2.964-4.071 2.61-.195-.195.156-.55 0-.706-.156-.157-.398.022-1.06.353-.472.236-1.663.636-1.946.354z"/></g><path fill="url(#u)" d="M6.06 20.982a1.5 1.5 0 0 1 2.122 0l3.535 3.536a1.5 1.5 0 0 1-2.12 2.121L6.06 23.104a1.5 1.5 0 0 1 0-2.122z"/><path fill="url(#v)" d="M6.06 20.982a1.5 1.5 0 0 1 2.122 0l3.535 3.536a1.5 1.5 0 0 1-2.12 2.121L6.06 23.104a1.5 1.5 0 0 1 0-2.122z"/><path fill="url(#w)" d="M6.06 20.982a1.5 1.5 0 0 1 2.122 0l3.535 3.536a1.5 1.5 0 0 1-2.12 2.121L6.06 23.104a1.5 1.5 0 0 1 0-2.122z"/><path fill="url(#x)" d="M29.172 2.871c-.947-.947-2.608-.84-3.818-.424a57.55 57.55 0 0 0-2.714 1.007.1.1 0 0 0-.034.163l5.81 5.849a.1.1 0 0 0 .162-.033 57.54 57.54 0 0 0 1.019-2.743c.41-1.194.74-2.654-.425-3.819z"/><path fill="url(#y)" d="M29.172 2.871c-.947-.947-2.608-.84-3.818-.424a57.55 57.55 0 0 0-2.714 1.007.1.1 0 0 0-.034.163l5.81 5.849a.1.1 0 0 0 .162-.033 57.54 57.54 0 0 0 1.019-2.743c.41-1.194.74-2.654-.425-3.819z"/><path fill="url(#z)" d="M29.172 2.871c-.947-.947-2.608-.84-3.818-.424a57.55 57.55 0 0 0-2.714 1.007.1.1 0 0 0-.034.163l5.81 5.849a.1.1 0 0 0 .162-.033 57.54 57.54 0 0 0 1.019-2.743c.41-1.194.74-2.654-.425-3.819z"/><path fill="url(#A)" d="M13.582 16.718c1.2-.442 2.367.725 1.925 1.926l-2.618 7.114a1 1 0 0 1-1.646.362l-5.138-5.138a1 1 0 0 1 .362-1.645z"/><path fill="url(#B)" d="M13.582 16.718c1.2-.442 2.367.725 1.925 1.926l-2.618 7.114a1 1 0 0 1-1.646.362l-5.138-5.138a1 1 0 0 1 .362-1.645z"/><path fill="url(#C)" d="M13.582 16.718c1.2-.442 2.367.725 1.925 1.926l-2.618 7.114a1 1 0 0 1-1.646.362l-5.138-5.138a1 1 0 0 1 .362-1.645z"/><path fill="url(#D)" d="M13.582 16.718c1.2-.442 2.367.725 1.925 1.926l-2.618 7.114a1 1 0 0 1-1.646.362l-5.138-5.138a1 1 0 0 1 .362-1.645z"/><g filter="url(#E)"><path fill="url(#F)" d="m9.205 22.047 5.625-4.406-3.625 6.437z"/></g></g></svg>