<svg xmlns="http://www.w3.org/2000/svg" width="32" height="32" fill="none"><filter id="b" width="14.78" height="26.875" x="7.682" y="2.696" color-interpolation-filters="sRGB" filterUnits="userSpaceOnUse"><feFlood flood-opacity="0" result="BackgroundImageFix"/><feBlend in="SourceGraphic" in2="BackgroundImageFix" result="shape"/><feColorMatrix in="SourceAlpha" result="hardAlpha" values="0 0 0 0 0 0 0 0 0 0 0 0 0 0 0 0 0 0 127 0"/><feOffset/><feGaussianBlur stdDeviation=".25"/><feComposite in2="hardAlpha" k2="-1" k3="1" operator="arithmetic"/><feColorMatrix values="0 0 0 0 0.968627 0 0 0 0 0.431373 0 0 0 0 0.337255 0 0 0 1 0"/><feBlend in2="shape" result="effect1_innerShadow_18_15539"/></filter><linearGradient id="a" x1="18.407" x2="18.407" y1="7.966" y2="23.712" gradientUnits="userSpaceOnUse"><stop offset="0" stop-color="#ffbd61"/><stop offset="1" stop-color="#eb5c74"/></linearGradient><linearGradient id="c" x1="15.072" x2="15.072" y1="11.05" y2="26.586" gradientUnits="userSpaceOnUse"><stop offset="0" stop-color="#ffa547"/><stop offset="1" stop-color="#f14b49"/></linearGradient><linearGradient id="d" x1="15.072" x2="15.072" y1="2.696" y2="13.761" gradientUnits="userSpaceOnUse"><stop offset="0" stop-color="#df9844"/><stop offset="1" stop-color="#df9844" stop-opacity="0"/></linearGradient><radialGradient id="e" cx="0" cy="0" r="1" gradientTransform="matrix(0 6.45595 -1.40857 0 17.1 7.924)" gradientUnits="userSpaceOnUse"><stop offset="0" stop-color="#fe9052"/><stop offset="1" stop-color="#fe9052" stop-opacity="0"/></radialGradient><linearGradient id="f" x1="13.063" x2="13.493" y1="8.372" y2="8.63" gradientUnits="userSpaceOnUse"><stop offset="0" stop-color="#c76c38"/><stop offset="1" stop-color="#c76c38" stop-opacity="0"/></linearGradient><radialGradient id="g" cx="0" cy="0" r="1" gradientTransform="matrix(0 6.6875 -2.4375 0 17.157 7.716)" gradientUnits="userSpaceOnUse"><stop offset="0" stop-color="#ffb54b"/><stop offset="1" stop-color="#ffb54b" stop-opacity="0"/></radialGradient><path fill="url(#a)" d="m16.724 3.803-8.157 13.53a.464.464 0 0 0 .398.703h4.127c.307 0 .557.25.557.557v8.637h-.491v2.341h.752a.271.271 0 0 0 .255-.134l9.073-14.866a.279.279 0 0 0-.237-.423h-4.709a.464.464 0 0 1-.464-.465V2.975a.276.276 0 0 0-.262-.278l-.842-.001z"/><g filter="url(#b)"><path fill="url(#c)" d="M16.493 2.831 7.75 17.332a.464.464 0 0 0 .397.704h4.127c.308 0 .557.25.557.557v10.7c0 .28.37.384.516.144l9.074-14.866a.279.279 0 0 0-.238-.423h-4.709a.464.464 0 0 1-.464-.465V2.975c0-.282-.371-.385-.517-.144z"/></g><path fill="url(#d)" d="M16.493 2.831 7.75 17.332a.464.464 0 0 0 .397.704h4.127c.308 0 .557.25.557.557v10.7c0 .28.37.384.516.144l9.074-14.866a.279.279 0 0 0-.238-.423h-4.709a.464.464 0 0 1-.464-.465V2.975c0-.282-.371-.385-.517-.144z"/><path fill="url(#e)" d="M16.493 2.831 7.75 17.332a.464.464 0 0 0 .397.704h4.127c.308 0 .557.25.557.557v10.7c0 .28.37.384.516.144l9.074-14.866a.279.279 0 0 0-.238-.423h-4.709a.464.464 0 0 1-.464-.465V2.975c0-.282-.371-.385-.517-.144z"/><path fill="url(#f)" d="M16.493 2.831 7.75 17.332a.464.464 0 0 0 .397.704h4.127c.308 0 .557.25.557.557v10.7c0 .28.37.384.516.144l9.074-14.866a.279.279 0 0 0-.238-.423h-4.709a.464.464 0 0 1-.464-.465V2.975c0-.282-.371-.385-.517-.144z"/><path fill="url(#g)" d="M16.493 2.831 7.75 17.332a.464.464 0 0 0 .397.704h4.127c.308 0 .557.25.557.557v10.7c0 .28.37.384.516.144l9.074-14.866a.279.279 0 0 0-.238-.423h-4.709a.464.464 0 0 1-.464-.465V2.975c0-.282-.371-.385-.517-.144z"/></svg>